<svg width="37" height="40" viewBox="0 0 37 40" fill="none" xmlns="http://www.w3.org/2000/svg">
<path d="M36.1799 21.8393C36.1799 31.1993 29.1599 38.8193 20.2799 39.5993C20.2799 39.5993 8.81986 39.8993 5.03986 39.5393C3.59986 39.3593 2.39986 38.4593 1.85986 37.1393C2.39986 37.3793 2.93986 37.5593 3.53986 37.6193C4.79986 37.7393 6.89986 37.7993 9.83986 37.7993C14.1599 37.7993 18.8999 37.6793 18.8999 37.6793H18.9599C23.6999 37.2593 28.0799 35.0993 31.1999 31.5593C33.8999 28.5593 35.6399 24.7793 36.1199 20.8193C36.1799 21.1193 36.1799 21.4793 36.1799 21.8393Z" fill="black"/>
<path d="M34.8 17.9994C34.8 27.3594 27.78 34.9794 18.84 35.6994C18.84 35.6994 7.38 35.9994 3.6 35.6394C1.56 35.4594 0.06 33.5394 0 31.3794L0.06 4.37938C0.12 2.21938 1.68 0.299377 3.72 0.119377C7.5 -0.180623 18.96 0.179377 18.96 0.179377C27.84 0.959377 34.8 8.63937 34.8 17.9994Z" fill="black"/>
</svg>
