<svg width="83" height="70" viewBox="0 0 83 70" fill="none" xmlns="http://www.w3.org/2000/svg">
<circle cx="27.275" cy="8.21469" r="8.13168" fill="#34A853"/>
<circle cx="79.3179" cy="41.8254" r="3.25267" fill="#34A853"/>
<path d="M78.7446 9.72851C81.4156 16.3097 78.2458 23.81 71.6647 26.481C70.9387 26.7757 70.2016 26.9992 69.461 27.155C65.3396 28.0217 60.737 29.2005 58.5318 32.7884C55.9571 36.9774 57.3643 42.4175 61.1661 45.5356C68.7466 51.7529 74.8805 59.9474 78.6913 69.734C90.5212 100.115 75.4825 134.334 45.1014 146.164C14.7202 157.994 -19.4987 142.955 -31.3286 112.574C-43.1586 82.1929 -28.1199 47.974 2.2613 36.1441C15.5312 30.977 29.5332 30.9358 42.082 35.0601C46.6272 36.554 51.8093 35.1385 54.3145 31.0625L55.2461 29.5468C57.0934 26.5411 56.2389 22.6702 54.9122 19.4011C52.2412 12.82 55.4109 5.31962 61.9921 2.64861C68.5732 -0.0224093 76.0736 3.14737 78.7446 9.72851Z" fill="#34A853"/>
</svg>
