<svg width="83" height="70" viewBox="0 0 83 70" fill="none" xmlns="http://www.w3.org/2000/svg">
<circle cx="27.275" cy="8.49105" r="8.13168" fill="#3A71CC"/>
<circle cx="79.3179" cy="42.1018" r="3.25267" fill="#3A71CC"/>
<path d="M78.7446 10.0049C81.4156 16.586 78.2458 24.0864 71.6647 26.7574C70.9387 27.052 70.2016 27.2756 69.461 27.4314C65.3396 28.2981 60.737 29.4768 58.5318 33.0648C55.9571 37.2538 57.3643 42.6938 61.1661 45.812C68.7466 52.0293 74.8805 60.2238 78.6913 70.0104C90.5212 100.392 75.4825 134.61 45.1014 146.44C14.7202 158.27 -19.4987 143.232 -31.3286 112.85C-43.1586 82.4693 -28.1199 48.2504 2.2613 36.4204C15.5312 31.2534 29.5332 31.2122 42.082 35.3365C46.6272 36.8303 51.8093 35.4149 54.3145 31.3388L55.2461 29.8232C57.0934 26.8175 56.2389 22.9465 54.9122 19.6775C52.2412 13.0963 55.4109 5.59599 61.9921 2.92497C68.5732 0.253958 76.0736 3.42374 78.7446 10.0049Z" fill="#3A71CC"/>
</svg>
