<svg width="83" height="71" viewBox="0 0 83 71" fill="none" xmlns="http://www.w3.org/2000/svg">
<circle cx="27.275" cy="9.04281" r="8.13168" fill="#EA4335"/>
<circle cx="79.3179" cy="42.6535" r="3.25267" fill="#EA4335"/>
<path d="M78.7446 10.5566C81.4156 17.1378 78.2458 24.6381 71.6647 27.3091C70.9387 27.6038 70.2016 27.8274 69.461 27.9831C65.3396 28.8498 60.737 30.0286 58.5318 33.6165C55.9571 37.8056 57.3643 43.2456 61.1661 46.3637C68.7466 52.581 74.8805 60.7756 78.6913 70.5621C90.5212 100.943 75.4825 135.162 45.1014 146.992C14.7202 158.822 -19.4987 143.783 -31.3286 113.402C-43.1586 83.021 -28.1199 48.8022 2.2613 36.9722C15.5312 31.8051 29.5332 31.764 42.082 35.8883C46.6272 37.3821 51.8093 35.9667 54.3145 31.8906L55.2461 30.3749C57.0934 27.3692 56.2389 23.4983 54.9122 20.2292C52.2412 13.6481 55.4109 6.14775 61.9921 3.47673C68.5732 0.805716 76.0736 3.9755 78.7446 10.5566Z" fill="#EA4335"/>
</svg>
