<svg width="83" height="71" viewBox="0 0 83 71" fill="none" xmlns="http://www.w3.org/2000/svg">
<circle cx="27.275" cy="8.76693" r="8.13168" fill="#FBBC05"/>
<circle cx="79.3179" cy="42.3777" r="3.25267" fill="#FBBC05"/>
<path d="M78.7446 10.2808C81.4156 16.8619 78.2458 24.3623 71.6647 27.0333C70.9387 27.3279 70.2016 27.5515 69.461 27.7072C65.3396 28.574 60.737 29.7527 58.5318 33.3407C55.9571 37.5297 57.3643 42.9697 61.1661 46.0879C68.7466 52.3051 74.8805 60.4997 78.6913 70.2863C90.5212 100.667 75.4825 134.886 45.1014 146.716C14.7202 158.546 -19.4987 143.507 -31.3286 113.126C-43.1586 82.7452 -28.1199 48.5263 2.2613 36.6963C15.5312 31.5292 29.5332 31.4881 42.082 35.6124C46.6272 37.1062 51.8093 35.6908 54.3145 31.6147L55.2461 30.0991C57.0934 27.0934 56.2389 23.2224 54.9122 19.9534C52.2412 13.3722 55.4109 5.87187 61.9921 3.20085C68.5732 0.529837 76.0736 3.69962 78.7446 10.2808Z" fill="#FBBC05"/>
</svg>
