<svg width="48" height="53" viewBox="0 0 48 53" fill="none" xmlns="http://www.w3.org/2000/svg">
<path fill-rule="evenodd" clip-rule="evenodd" d="M19.1035 46.8047C18.8716 46.1182 19.2531 45.3077 19.9557 44.9945C25.767 42.4037 31.6487 40.0899 37.5083 37.7848C38.2541 37.4914 38.9996 37.1981 39.7445 36.9044C40.4571 36.6235 41.1962 36.9635 41.3952 37.6638C41.5942 38.3642 41.1778 39.1596 40.4651 39.4406C39.7183 39.735 38.9723 40.0285 38.227 40.3217C32.3602 42.6298 26.5426 44.9185 20.7957 47.4805C20.0931 47.7938 19.3355 47.4912 19.1035 46.8047Z" fill="white"/>
<path fill-rule="evenodd" clip-rule="evenodd" d="M40.7733 17.2026C41.194 17.8609 41.0416 18.7938 40.4328 19.2862C39.284 20.2155 38.1354 21.1426 36.9876 22.0689C30.28 27.4826 23.6036 32.8711 17.1086 38.5334C16.5159 39.0501 15.6763 38.9506 15.2331 38.3111C14.7899 37.6716 14.9111 36.7344 15.5038 36.2177C22.0436 30.5163 28.7677 25.0894 35.4737 19.6771C36.6197 18.7522 37.7652 17.8277 38.9092 16.9023C39.518 16.4098 40.3526 16.5443 40.7733 17.2026Z" fill="white"/>
<path fill-rule="evenodd" clip-rule="evenodd" d="M19.9703 8.05815C20.5964 8.42992 20.8025 9.30693 20.4307 10.017L8.30445 33.1759C7.93265 33.8859 7.12374 34.1602 6.49771 33.7884C5.87168 33.4167 5.66559 32.5397 6.0374 31.8296L18.1636 8.67074C18.5354 7.96065 19.3443 7.68639 19.9703 8.05815Z" fill="white"/>
</svg>
