<svg width="874" height="857" viewBox="0 0 874 857" fill="none" xmlns="http://www.w3.org/2000/svg">
<mask id="mask0_116_1836" style="mask-type:alpha" maskUnits="userSpaceOnUse" x="54" y="318" width="515" height="467">
<path fill-rule="evenodd" clip-rule="evenodd" d="M302.616 350.377C358.206 346.162 428.273 294.597 465.44 332.78C507.612 376.105 431.624 447.815 451.234 503.058C467.168 547.943 545.276 554.132 560.067 599.345C576.071 648.263 569.243 709.932 531.07 747.09C492.877 784.268 427.451 787.19 372.03 782.384C325.897 778.384 297.636 731.377 252.224 722.91C199.653 713.108 129.844 767.958 94.7786 730.69C59.6861 693.393 133.108 637.526 125.932 588.685C118.866 540.592 48.9764 509.846 55.2518 461.66C61.4276 414.239 109.49 377.244 156.206 356.227C200.978 336.085 252.926 354.145 302.616 350.377Z" fill="#C4C4C4"/>
</mask>
<g mask="url(#mask0_116_1836)">
<rect width="711.721" height="718.448" transform="matrix(-1 0 0 -1 580.875 954.377)" fill="#F0F0F0"/>
<path d="M580.875 778.377L-31.1248 778.377" stroke="black"/>
<path d="M580.875 762.377L-31.1248 762.377" stroke="black"/>
<path d="M580.875 746.377L-31.1248 746.376" stroke="black"/>
<path d="M580.875 730.376L-31.1248 730.376" stroke="black"/>
<path d="M580.875 714.376L-31.1248 714.376" stroke="black"/>
<path d="M580.875 698.376L-31.1248 698.376" stroke="black"/>
<path d="M580.875 682.376L-31.1248 682.376" stroke="black"/>
<path d="M580.875 666.376L-31.1248 666.376" stroke="black"/>
<path d="M580.875 650.376L-31.1248 650.376" stroke="black"/>
<path d="M580.875 634.376L-31.1248 634.376" stroke="black"/>
<path d="M580.875 618.376L-31.1248 618.376" stroke="black"/>
<path d="M580.875 602.376L-31.1248 602.376" stroke="black"/>
<path d="M580.875 586.376L-31.1248 586.376" stroke="black"/>
<path d="M580.875 570.376L-31.1248 570.376" stroke="black"/>
<path d="M580.875 554.376L-31.1248 554.376" stroke="black"/>
<path d="M580.875 538.376L-31.1248 538.376" stroke="black"/>
<path d="M580.875 522.376L-31.1248 522.376" stroke="black"/>
<path d="M580.875 506.376L-31.1248 506.376" stroke="black"/>
<path d="M580.875 490.376L-31.1248 490.375" stroke="black"/>
<path d="M580.875 474.375L-31.1248 474.375" stroke="black"/>
<path d="M580.875 458.375L-31.1248 458.375" stroke="black"/>
<path d="M580.875 442.375L-31.1248 442.375" stroke="black"/>
<path d="M580.875 426.375L-31.1248 426.375" stroke="black"/>
<path d="M580.875 410.375L-31.1248 410.375" stroke="black"/>
<path d="M580.875 394.375L-31.1248 394.375" stroke="black"/>
<path d="M580.875 378.375L-31.1248 378.375" stroke="black"/>
<path d="M580.875 362.375L-31.1248 362.375" stroke="black"/>
<path d="M580.875 346.375L-31.1248 346.375" stroke="black"/>
<path d="M580.875 330.375L-31.1248 330.375" stroke="black"/>
<path d="M562.875 954.377V162.377" stroke="black"/>
<path d="M532.875 776.377L546.875 954.377" stroke="white" stroke-width="12"/>
<path d="M516.875 954.377V162.377" stroke="black"/>
<path d="M500.875 954.377V162.377" stroke="black"/>
<path d="M484.875 954.377V162.377" stroke="black"/>
<path d="M468.875 954.377V162.377" stroke="black"/>
<path d="M452.875 954.377V162.377" stroke="black"/>
<path d="M436.875 954.377V162.377" stroke="black"/>
<path d="M420.875 954.377V162.377" stroke="black"/>
<path d="M404.875 954.377V162.377" stroke="black"/>
<path d="M388.875 954.377V162.377" stroke="black"/>
<path d="M372.875 954.377V162.377" stroke="black"/>
<path d="M356.875 954.377V162.377" stroke="black"/>
<path d="M340.875 954.377V162.377" stroke="black"/>
<path d="M324.875 954.377V162.377" stroke="black"/>
<path d="M308.875 954.377V162.377" stroke="black"/>
<path d="M292.875 954.377V162.377" stroke="black"/>
<path d="M276.875 954.377V162.377" stroke="black"/>
<path d="M260.875 954.377V162.377" stroke="black"/>
<path d="M244.875 954.377V162.377" stroke="black"/>
<path d="M228.875 954.377V162.377" stroke="black"/>
<path d="M212.875 954.377V162.377" stroke="black"/>
<path d="M196.875 954.377V162.377" stroke="black"/>
<path d="M180.875 954.377V162.377" stroke="black"/>
<path d="M164.875 954.377V162.377" stroke="black"/>
<path d="M148.875 954.377V162.377" stroke="black"/>
<path d="M132.875 954.377V162.377" stroke="black"/>
<path d="M116.875 954.377V162.377" stroke="black"/>
<path d="M100.875 954.377V162.377" stroke="black"/>
<path d="M84.8752 954.377V162.377" stroke="black"/>
<path d="M68.8752 954.377V162.377" stroke="black"/>
</g>
<mask id="mask1_116_1836" style="mask-type:alpha" maskUnits="userSpaceOnUse" x="281" y="149" width="579" height="544">
<path fill-rule="evenodd" clip-rule="evenodd" d="M560.522 186.125C623.125 181.209 702.032 121.063 743.888 165.599C791.381 216.134 705.805 299.777 727.89 364.213C745.834 416.567 833.796 423.786 850.453 476.523C868.476 533.581 860.787 605.512 817.798 648.853C774.786 692.218 701.107 695.627 638.693 690.021C586.74 685.355 554.914 630.526 503.773 620.65C444.57 609.217 365.953 673.194 326.464 629.724C286.944 586.221 369.629 521.057 361.548 464.089C353.591 407.993 274.883 372.13 281.951 315.926C288.905 260.614 343.031 217.462 395.641 192.948C446.062 169.455 504.563 190.52 560.522 186.125Z" fill="#C4C4C4"/>
</mask>
<g mask="url(#mask1_116_1836)">
<rect width="801.511" height="838.002" transform="matrix(-1 0 0 -1 858.49 890.137)" fill="#F0F0F0"/>
<path d="M858.49 682.136L246.49 682.136" stroke="black"/>
<path d="M858.49 666.136L246.49 666.136" stroke="black"/>
<path d="M858.49 650.136L246.49 650.136" stroke="black"/>
<path d="M858.49 634.136L246.49 634.136" stroke="black"/>
<path d="M858.49 618.136L246.49 618.136" stroke="black"/>
<path d="M858.49 602.136L246.49 602.136" stroke="black"/>
<path d="M858.49 586.136L246.49 586.136" stroke="black"/>
<path d="M858.49 570.136L246.49 570.136" stroke="black"/>
<path d="M858.49 554.136L246.49 554.136" stroke="black"/>
<path d="M858.49 538.136L246.49 538.136" stroke="black"/>
<path d="M858.49 522.136L246.49 522.136" stroke="black"/>
<path d="M858.49 506.136L246.49 506.136" stroke="black"/>
<path d="M858.49 490.136L246.49 490.136" stroke="black"/>
<path d="M858.49 474.136L246.49 474.136" stroke="black"/>
<path d="M858.49 458.136L246.49 458.136" stroke="black"/>
<path d="M858.49 442.136L246.49 442.136" stroke="black"/>
<path d="M858.49 426.135L246.49 426.135" stroke="black"/>
<path d="M858.49 410.135L246.49 410.135" stroke="black"/>
<path d="M858.49 394.135L246.49 394.135" stroke="black"/>
<path d="M858.49 378.135L246.49 378.135" stroke="black"/>
<path d="M858.49 362.135L246.49 362.135" stroke="black"/>
<path d="M858.49 346.135L246.49 346.135" stroke="black"/>
<path d="M858.49 330.135L246.49 330.135" stroke="black"/>
<path d="M858.49 314.135L246.49 314.135" stroke="black"/>
<path d="M858.49 298.135L246.49 298.135" stroke="black"/>
<path d="M858.49 282.135L246.49 282.135" stroke="black"/>
<path d="M858.49 266.135L246.49 266.135" stroke="black"/>
<path d="M858.49 250.135L246.49 250.135" stroke="black"/>
<path d="M858.49 234.135L246.49 234.135" stroke="black"/>
<path d="M858.49 218.135L246.49 218.135" stroke="black"/>
<path d="M858.49 202.135L246.49 202.135" stroke="black"/>
<path d="M858.49 186.135L246.49 186.135" stroke="black"/>
<path d="M858.49 170.135L246.49 170.134" stroke="black"/>
<path d="M858.49 154.134L246.49 154.134" stroke="black"/>
<path d="M856.49 890.137V98.1372" stroke="black"/>
<path d="M840.49 890.137V98.1372" stroke="black"/>
<path d="M824.49 890.137V98.1372" stroke="black"/>
<path d="M808.49 890.137V98.1372" stroke="black"/>
<path d="M792.49 890.137V98.1372" stroke="black"/>
<path d="M776.49 890.137V98.1372" stroke="black"/>
<path d="M760.49 890.137V98.1372" stroke="black"/>
<path d="M744.49 890.137V98.1372" stroke="black"/>
<path d="M728.49 890.137V98.1372" stroke="black"/>
<path d="M712.49 890.137V98.1372" stroke="black"/>
<path d="M696.49 890.137V98.1372" stroke="black"/>
<path d="M680.49 890.137V98.1372" stroke="black"/>
<path d="M664.49 890.137V98.1372" stroke="black"/>
<path d="M648.49 890.137V98.1372" stroke="black"/>
<path d="M632.49 890.137V98.1372" stroke="black"/>
<path d="M616.49 890.137V98.1372" stroke="black"/>
<path d="M600.49 890.137V98.1372" stroke="black"/>
<path d="M584.49 890.137V98.1372" stroke="black"/>
<path d="M568.49 890.137V98.1372" stroke="black"/>
<path d="M552.49 890.137V98.1372" stroke="black"/>
<path d="M536.49 890.137V98.1372" stroke="black"/>
<path d="M520.49 890.137V98.1372" stroke="black"/>
<path d="M504.49 890.137V98.1372" stroke="black"/>
<path d="M488.49 890.137V98.1372" stroke="black"/>
<path d="M472.49 890.137V98.1372" stroke="black"/>
<path d="M456.49 890.137V98.1372" stroke="black"/>
<path d="M440.49 890.137V98.1372" stroke="black"/>
<path d="M424.49 890.137V98.1372" stroke="black"/>
<path d="M408.49 890.137V98.1372" stroke="black"/>
<path d="M392.49 890.137V98.1372" stroke="black"/>
<path d="M376.49 890.137V98.1372" stroke="black"/>
<path d="M360.49 890.137V98.1372" stroke="black"/>
<path d="M344.49 890.137V98.1372" stroke="black"/>
<path d="M328.49 890.137V98.1372" stroke="black"/>
<path d="M312.49 890.137V98.1372" stroke="black"/>
<path d="M296.49 890.137V98.1372" stroke="black"/>
</g>
<path d="M546.929 835.415L547.75 845.525L556.215 839.936L704.736 741.874L856.113 645.24L862.949 640.876L856.777 635.616L692.504 495.627L690.715 494.103L688.366 494.199L525.998 500.865L519.758 501.121L520.264 507.346L546.929 835.415Z" stroke="white" stroke-width="12"/>
<path d="M854.789 643.522L850.885 640.168V639.7H850.418L688.365 500.662L524.34 507.694L552.147 840.643L850.314 646.455H851.171V645.939L854.789 643.522ZM686.032 507.445L840.6 640.159L703.468 645.729L537.005 513.876L686.032 507.445ZM557.566 826.12L531.854 518.29L697.659 649.656L557.566 826.12ZM570.327 820.798L704.03 652.398L837.2 646.99L570.327 820.798Z" fill="#4285F4"/>
<path d="M840.599 640.159L703.476 645.729L537.014 513.847L686.03 507.445L840.599 640.159Z" fill="#EA4335"/>
<path d="M837.2 646.99L570.326 820.798L704.029 652.398L837.2 646.99Z" fill="#EA4335"/>
<path d="M697.678 649.656L557.566 826.12L531.873 518.29L697.678 649.656Z" fill="#EA4335"/>
<path d="M270.486 151.365L270.066 145.38C287.313 144.17 303.092 145.615 315.729 149.431C328.173 153.189 338.57 159.575 343.385 169.049M270.486 151.365L338.036 171.767M270.486 151.365L270.065 145.38C203.084 150.082 113.604 186.489 56.527 232.077C40.2382 245.086 27.152 258.853 18.3949 271.968C9.76716 284.89 4.77778 298.036 6.25768 309.515L6.25772 309.515C6.43954 310.925 6.9976 312.761 7.59601 314.54C8.24988 316.483 9.14467 318.903 10.2412 321.714C12.4376 327.344 15.5146 334.724 19.2681 343.341M270.486 151.365L12.2084 308.748C12.5937 311.734 17.2964 323.789 24.769 340.945M343.385 169.049L338.036 171.767M343.385 169.049C343.384 169.048 343.384 169.048 343.384 169.048L338.036 171.767M343.385 169.049C344.467 171.178 350.14 183.889 355.932 197.114L355.933 197.114C365.205 218.289 367.005 222.841 367.527 230.1C368.899 249.149 355.923 270.406 335.145 290.614C314.033 311.145 283.579 331.866 246.981 349.907C190.189 377.903 136.961 392.698 91.6516 392.627C66.2989 392.588 49.2737 388.392 37.2766 377.128M338.036 171.767C339.015 173.694 344.595 186.183 350.436 199.521C359.863 221.046 361.111 224.532 361.543 230.531C363.88 262.979 316.728 308.836 244.328 344.525C188.037 372.274 135.741 386.696 91.6608 386.627C66.7719 386.589 51.6849 382.425 41.3835 372.753M37.2766 377.128C37.2767 377.128 37.2769 377.128 37.277 377.128L41.3835 372.753M37.2766 377.128L41.3835 372.753M37.2766 377.128C31.8183 372.004 30.0982 368.206 19.2681 343.341M41.3835 372.753C37.0527 368.688 35.8437 366.372 24.769 340.945M24.769 340.945L19.2681 343.341C19.2681 343.341 19.2681 343.341 19.2681 343.341M24.769 340.945L19.2681 343.341M12.2082 308.748L12.208 308.748L12.2082 308.748Z" fill="black" stroke="white" stroke-width="12"/>
<path d="M279.052 201.338C275.624 193.455 262.301 191.659 239.474 195.968C218.733 199.876 192.678 208.456 166.099 220.113C139.52 231.769 115.57 245.146 98.6188 257.758C79.9632 271.66 72.24 282.686 75.6778 290.559C77.8967 295.661 84.2485 298.203 94.6667 298.203C100.969 298.105 107.252 297.465 113.446 296.292L113.513 296.368L113.656 296.244C114.189 296.148 114.713 296.072 115.256 295.957C135.997 292.04 162.052 283.46 188.583 271.803C215.114 260.147 239.122 246.78 256.073 234.168C274.767 220.228 282.49 209.221 279.052 201.338ZM185.993 265.669C164.861 274.928 144.091 282.208 126.226 286.689C142.168 275.587 163.518 263.949 187.174 253.583C206.251 245.203 225.962 238.359 246.121 233.117C230.056 244.114 209.029 255.58 185.993 265.669ZM258.93 223.4C237.217 227.527 209.41 236.509 184.469 247.458C154.233 260.72 127.54 276.122 110.799 289.938C99.7902 291.734 84.0009 292.881 81.8202 287.893C79.4108 282.361 93.762 269.74 102.628 263.128C119.179 250.802 142.691 237.703 168.813 226.237C194.935 214.772 220.485 206.364 240.75 202.532C247.312 201.259 253.971 200.556 260.653 200.43C266.777 200.43 271.824 201.386 273.033 204.013C274.795 208.265 266.739 216.721 258.892 223.4H258.93Z" fill="#EA4335"/>
<path d="M360.626 221.097L340.361 174.585C332.867 157.387 308.612 149.141 272.024 151.301C236.57 153.403 193.316 164.964 150.243 183.853C107.171 202.743 69.2974 226.772 43.7185 251.471C17.3016 276.934 6.87388 300.419 14.3685 317.599L34.6336 364.12C41.2997 379.503 61.498 387.749 91.9051 387.749C95.4603 387.749 99.1489 387.634 102.971 387.405C138.425 385.303 181.679 373.742 224.752 354.842C267.824 335.943 305.698 311.933 331.276 287.244C357.693 261.771 368.112 238.276 360.626 221.097ZM20.4727 314.923C14.2732 300.706 24.4343 279.332 48.3371 256.277C73.4018 232.123 110.542 208.58 152.91 189.997C195.278 171.413 237.722 160.033 272.424 157.989C276.071 157.759 279.585 157.664 282.966 157.664C310.288 157.664 328.734 164.61 334.257 177.27C340.447 191.487 330.296 212.861 306.383 235.916C281.328 260.08 244.188 283.632 201.82 302.216C159.452 320.799 117.008 332.16 82.3059 334.224C49.2038 336.182 26.6722 329.15 20.4727 314.923ZM326.658 282.438C301.593 306.592 264.453 330.134 222.085 348.718C179.717 367.302 137.273 378.691 102.571 380.735C69.4689 382.646 46.9373 375.662 40.7473 361.435L27.9959 332.179C38.1951 338.131 52.9845 341.237 71.6401 341.237C75.1922 341.237 78.8776 341.132 82.6964 340.902C118.16 338.81 161.414 327.239 204.487 308.35C247.559 289.46 285.432 265.45 311.002 240.751C328.277 224.088 338.714 208.265 341.771 194.545L354.551 223.782C360.722 237.999 350.561 259.401 326.658 282.428V282.438Z" fill="#EA4335"/>
<path d="M334.257 177.232C328.734 164.572 310.288 157.626 282.966 157.626C279.585 157.626 276.071 157.721 272.424 157.951C237.722 159.995 195.287 171.327 152.91 189.959C110.532 208.59 73.4018 232.085 48.3372 256.239C24.4343 279.294 14.2732 300.668 20.4727 314.885C26.6722 329.102 49.2038 336.144 82.3059 334.185C117.008 332.122 159.443 320.809 201.82 302.177C244.198 283.546 281.328 260.042 306.383 235.878C330.296 212.861 340.447 191.487 334.257 177.232ZM256.111 234.11C239.16 246.722 215.162 260.089 188.621 271.746C162.08 283.403 135.997 291.983 115.294 295.9C114.751 296.015 114.227 296.091 113.694 296.187L113.551 296.311L113.484 296.234C107.29 297.408 101.008 298.047 94.7049 298.145C84.2962 298.145 77.9348 295.594 75.7159 290.502C72.2781 282.629 80.0014 271.603 98.657 257.701C115.608 245.089 139.606 231.722 166.137 220.056C192.669 208.389 218.771 199.819 239.512 195.911C262.368 191.602 275.7 193.398 279.09 201.281C282.48 209.163 274.767 220.228 256.111 234.149V234.11Z" fill="#4285F4"/>
<path d="M258.892 223.4C237.179 227.527 209.372 236.509 184.431 247.458C154.195 260.72 127.502 276.122 110.761 289.938C99.7523 291.734 83.963 292.881 81.7822 287.893C79.3729 282.361 93.7242 269.74 102.59 263.128C119.141 250.802 142.654 237.703 168.775 226.237C194.897 214.772 220.447 206.364 240.712 202.532C247.274 201.259 253.933 200.556 260.616 200.43C266.739 200.43 271.786 201.386 272.995 204.013C274.795 208.265 266.739 216.721 258.892 223.4Z" fill="#EA4335"/>
<path d="M326.657 282.428C301.593 306.592 264.453 330.134 222.085 348.718C179.717 367.302 137.273 378.681 102.571 380.735C69.4686 382.646 46.9371 375.662 40.7471 361.435L27.9957 332.179C38.1949 338.131 52.9843 341.237 71.6399 341.237C75.192 341.237 78.8774 341.132 82.6962 340.902C118.16 338.8 161.414 327.239 204.486 308.34C247.559 289.441 285.432 265.44 311.002 240.741C328.276 224.088 338.714 208.256 341.771 194.535L354.55 223.782C360.721 237.999 350.56 259.401 326.657 282.428Z" fill="#4285F4"/>
<rect x="136.847" y="344.588" width="502.626" height="321.688" fill="#F0F0F0" stroke="black" stroke-width="4"/>
<rect x="160.655" y="326.494" width="502.626" height="321.688" fill="#F0F0F0" stroke="black" stroke-width="4"/>
<rect x="182.558" y="306.495" width="502.626" height="321.688" fill="#EAEAEA" stroke="black" stroke-width="4"/>
<path d="M137.744 530.847L137.744 530.847C139.868 527.595 143.327 526.066 146.79 526.161C150.168 526.255 153.408 527.852 155.832 530.46L137.744 530.847ZM137.744 530.847C136.221 533.179 135.887 535.672 135.821 539.672C135.754 543.74 135.991 550.46 136.468 562.091L136.468 562.091C136.942 573.646 137.158 580.039 137.104 583.797C137.069 586.232 136.906 587.146 136.837 587.411L137.744 530.847ZM116.689 686.817C116.689 686.817 116.688 686.817 116.688 686.817L117.542 681.89L116.689 686.817ZM116.689 686.817C117.486 686.955 118.319 687.386 118.907 687.935C119.035 688.054 119.135 688.164 119.211 688.258C119.125 688.529 119.017 688.854 118.888 689.235C118.427 690.586 117.748 692.464 116.892 694.748C115.185 699.307 112.821 705.363 110.214 711.808L110.214 711.808C107.581 718.317 105.182 724.486 103.436 729.189C102.565 731.536 101.844 733.55 101.335 735.073C101.083 735.829 100.867 736.51 100.708 737.072C100.63 737.35 100.551 737.649 100.488 737.941L100.488 737.943C100.446 738.134 100.326 738.691 100.326 739.333C100.326 742.544 102.074 745.24 103.833 746.94C105.609 748.657 108.322 750.259 111.458 750.259C112.275 750.259 112.949 750.07 113.222 749.989C113.588 749.882 113.938 749.751 114.24 749.629C114.847 749.383 115.538 749.059 116.262 748.697C117.724 747.966 119.612 746.936 121.798 745.687C126.185 743.18 131.975 739.676 138.374 735.632C144.362 731.848 150.011 728.419 154.28 725.948C156.421 724.708 158.173 723.733 159.429 723.08C159.708 722.935 159.951 722.812 160.159 722.71C160.295 722.92 160.479 723.232 160.708 723.683C162.281 726.783 164.383 733.052 168.624 746.184C171.007 753.563 173.242 760.085 175.02 764.903C175.906 767.305 176.697 769.334 177.349 770.852C177.672 771.605 177.99 772.299 178.29 772.876C178.438 773.163 178.614 773.482 178.813 773.791C178.963 774.026 179.324 774.573 179.886 775.084L179.888 775.086C184.007 778.825 190.407 778.856 194.543 775.102L116.689 686.817ZM107.186 601.89C115.093 610.688 119.911 616.157 122.881 619.913C125.986 623.839 127.457 626.355 128.242 629.281L128.243 629.282C130.019 635.907 128.141 643.266 123.479 648.324L123.479 648.325C122.646 649.228 121.258 650.192 120.108 650.957C118.763 651.852 117.045 652.92 115.091 654.086C111.176 656.421 106.168 659.231 100.997 661.965L96.125 664.54L102.446 665.418C112.15 666.765 117.882 667.607 121.553 668.424C125.515 669.304 127.588 670.266 129.797 671.957L129.797 671.957C132.084 673.708 134.835 676.765 136.116 679.219L131.683 681.532L136.116 679.219C137.05 681.009 137.794 682.933 138.095 685.216C138.392 687.469 138.221 689.787 137.698 692.348C136.691 697.276 134.182 703.926 130.069 713.971C129.283 715.89 128.524 717.75 127.809 719.509C129.275 718.593 130.82 717.622 132.415 716.615C137.252 713.559 142.089 710.658 146 708.438C147.952 707.331 149.705 706.375 151.129 705.648C152.381 705.01 153.823 704.314 154.925 704.014C161.708 702.171 168.384 704.322 173.844 709.133C175.983 711.017 177.37 712.935 178.939 716.645C180.384 720.064 182.144 725.387 184.979 734.25L184.979 734.25C185.758 736.687 186.518 739.022 187.232 741.177C187.94 739.048 188.692 736.743 189.464 734.339L189.464 734.339C192.979 723.382 195.36 716.446 198.094 712.106C199.58 709.748 201.285 707.943 203.466 706.595C205.552 705.307 207.797 704.616 209.988 704.068L209.989 704.068C211.637 703.656 213.468 703.263 215.546 703.339C217.674 703.416 219.708 703.964 221.938 704.911C226.115 706.684 231.968 710.321 241.8 716.548L241.8 716.548C243.483 717.614 245.114 718.642 246.657 719.61C246.018 718.003 245.34 716.308 244.636 714.561C242.574 709.438 240.622 704.473 239.138 700.597C237.737 696.939 236.571 693.792 236.296 692.67M107.186 601.89L251.83 673.689L250.588 668.845C245.599 670.124 241.604 674.126 239.163 678.193C236.723 682.26 235.07 687.667 236.296 692.67M107.186 601.89C109.434 602.354 111.862 602.865 114.381 603.406L114.381 603.406C124.935 605.669 131.502 606.971 136.129 607.079C138.595 607.136 140.75 606.871 142.822 606.142C144.851 605.429 146.512 604.369 148.039 603.278C149.619 602.149 151.293 600.82 152.637 598.919C154.022 596.959 154.815 594.747 155.281 592.149C156.149 587.318 156.048 579.966 155.712 567.992L155.712 567.992C155.643 565.528 155.589 563.175 155.552 560.995C156.933 562.763 158.413 564.662 159.94 566.626C169.934 579.481 173.567 583.725 178.58 586.22L178.58 586.22C185.317 589.572 193.456 589.34 199.304 584.725C200.057 584.132 201.005 583.095 201.812 582.186C202.744 581.136 203.898 579.78 205.188 578.225C207.771 575.109 210.976 571.102 214.188 566.945C215.831 564.818 217.434 562.751 218.921 560.841C218.873 563.045 218.809 565.593 218.729 568.532C218.433 579.404 218.279 585.338 218.481 588.916C218.585 590.769 218.796 592.319 219.261 593.759C219.738 595.237 220.401 596.327 220.927 597.181L220.927 597.182C222.341 599.476 224.889 602.349 227.054 603.772L227.054 603.773C228.562 604.764 230.199 605.711 232.197 606.33C234.217 606.957 236.317 607.162 238.719 607.073C243.254 606.906 249.701 605.629 260.067 603.406L260.067 603.406C262.592 602.864 265.025 602.352 267.279 601.887C266.067 603.264 264.765 604.724 263.402 606.235C259.697 610.343 256.147 614.411 253.407 617.664C252.039 619.288 250.854 620.732 249.946 621.887C249.155 622.892 248.275 624.046 247.816 624.907L247.816 624.907C245.68 628.913 245.359 633.788 246.089 638.033C246.817 642.269 248.744 646.759 252.137 649.768C252.137 649.768 252.137 649.768 252.138 649.768L255.455 646.027L107.186 601.89ZM236.296 692.67L241.152 691.479L236.296 692.67C236.296 692.67 236.296 692.67 236.296 692.67ZM136.807 587.502C136.806 587.498 136.813 587.474 136.83 587.438C136.816 587.487 136.808 587.505 136.807 587.502ZM288.434 668.265C287.632 668.38 286.75 668.505 285.799 668.639C283.819 667.508 281.334 666.128 278.523 664.602C281.553 664.186 284.307 663.802 286.56 663.482C286.635 663.471 286.71 663.461 286.784 663.45C287.648 663.936 288.445 664.39 289.162 664.804C288.516 665.809 288.324 666.905 288.384 667.82C288.395 667.974 288.412 668.122 288.434 668.265ZM293.322 667.412L293.352 667.517L293.323 667.413C293.323 667.413 293.323 667.413 293.322 667.412ZM273.388 661.844L275.734 657.429L273.388 661.844C273.388 661.844 273.388 661.844 273.388 661.844ZM253.775 724.035C254.156 725.013 254.506 725.916 254.818 726.731C254.373 726.89 253.866 727.142 253.365 727.546C252.813 727.992 252.438 728.485 252.183 728.924C251.439 728.469 250.615 727.962 249.722 727.411L253.775 724.035Z" fill="black" stroke="white" stroke-width="10"/>
<rect x="-0.657707" y="-0.175688" width="18.5676" height="63.6148" rx="9.28382" transform="matrix(-0.468669 -0.883374 -0.846746 0.531998 310.27 451.957)" fill="#FBBC04" stroke="black"/>
<rect x="-0.657707" y="0.175688" width="18.5676" height="63.6148" rx="9.28382" transform="matrix(-0.468669 0.883374 -0.846746 -0.531998 310.567 446.379)" fill="#0F9D58" stroke="black"/>
<rect x="0.657707" y="0.175688" width="17.3365" height="59.5493" rx="8.66825" transform="matrix(0.468669 0.883374 0.846746 -0.531998 251.81 388.772)" fill="#EA4335" stroke="black"/>
<rect x="0.657707" y="-0.175688" width="17.3365" height="59.5493" rx="8.66825" transform="matrix(0.468669 -0.883374 0.846746 0.531998 250.873 396.927)" fill="#4285F4" stroke="black"/>
<path d="M203.828 416.063V371.263H212.276V389.759H228.916V371.263H237.364V416.063H228.916V397.439H212.276V416.063H203.828Z" fill="#191919"/>
<path d="M346.342 416.959C340.796 416.959 336.401 415.423 333.158 412.351C329.916 409.236 328.294 404.799 328.294 399.039V388.287C328.294 382.527 329.916 378.111 333.158 375.039C336.401 371.924 340.796 370.367 346.342 370.367C351.846 370.367 356.092 371.882 359.078 374.911C362.108 377.898 363.622 382.015 363.622 387.263V387.647H355.302V387.007C355.302 384.362 354.556 382.186 353.062 380.479C351.612 378.772 349.372 377.919 346.342 377.919C343.356 377.919 341.009 378.836 339.302 380.671C337.596 382.506 336.742 385.002 336.742 388.159V399.167C336.742 402.282 337.596 404.778 339.302 406.655C341.009 408.49 343.356 409.407 346.342 409.407C349.372 409.407 351.612 408.554 353.062 406.847C354.556 405.098 355.302 402.922 355.302 400.319V399.167H363.622V400.063C363.622 405.311 362.108 409.45 359.078 412.479C356.092 415.466 351.846 416.959 346.342 416.959ZM370.506 416.063V371.263H378.954V389.055H380.106L394.634 371.263H405.45L386.762 393.343L406.09 416.063H394.954L380.106 397.887H378.954V416.063H370.506ZM410.504 426.431V419.135H441.864V426.431H410.504ZM451.088 390.911V386.559H453.584C455.546 386.559 456.528 385.578 456.528 383.615V381.567H455.44C453.733 381.567 452.304 381.055 451.152 380.031C450.042 379.007 449.488 377.706 449.488 376.127C449.488 374.42 450.042 373.034 451.152 371.967C452.304 370.9 453.733 370.367 455.44 370.367C457.189 370.367 458.618 370.922 459.728 372.031C460.837 373.098 461.392 374.548 461.392 376.383V383.743C461.392 388.522 459.002 390.911 454.224 390.911H451.088ZM467.532 416.063V410.687C467.532 407.572 468.044 404.991 469.068 402.943C470.092 400.852 471.564 399.146 473.484 397.823C475.447 396.458 477.836 395.348 480.652 394.495L484.94 393.151C486.519 392.639 487.842 392.02 488.908 391.295C489.975 390.527 490.786 389.61 491.34 388.543C491.938 387.476 492.236 386.26 492.236 384.895V384.639C492.236 382.506 491.511 380.82 490.06 379.583C488.61 378.303 486.626 377.663 484.108 377.663C481.634 377.663 479.628 378.346 478.092 379.711C476.599 381.034 475.852 382.954 475.852 385.471V386.623H467.66V385.599C467.66 382.356 468.386 379.604 469.836 377.343C471.287 375.082 473.25 373.354 475.724 372.159C478.242 370.964 481.036 370.367 484.108 370.367C487.18 370.367 489.954 370.964 492.428 372.159C494.903 373.311 496.844 374.954 498.252 377.087C499.703 379.178 500.428 381.652 500.428 384.511V385.151C500.428 388.01 499.831 390.442 498.636 392.447C497.484 394.41 495.906 396.031 493.9 397.311C491.895 398.548 489.612 399.572 487.052 400.383L482.956 401.663C481.122 402.218 479.692 402.836 478.668 403.519C477.644 404.159 476.919 404.884 476.492 405.695C476.108 406.463 475.916 407.402 475.916 408.511V408.767H500.044V416.063H467.532ZM525.462 416.063V406.975H503.446V397.503L518.934 371.263H533.654V399.679H541.078V406.975H533.654V416.063H525.462ZM511.254 399.679H525.462V376.511H524.31L511.254 398.655V399.679Z" fill="#191919"/>
<path d="M339.686 480.82V443.7H326.63V436.02H361.19V443.7H348.134V480.82H339.686ZM366.943 480.82V436.02H375.391V454.516H392.031V436.02H400.479V480.82H392.031V462.196H375.391V480.82H366.943ZM426.351 481.716C420.719 481.716 416.239 480.18 412.911 477.108C409.583 473.993 407.919 469.556 407.919 463.796V453.044C407.919 447.284 409.583 442.868 412.911 439.796C416.239 436.681 420.719 435.124 426.351 435.124C431.983 435.124 436.463 436.681 439.791 439.796C443.119 442.868 444.783 447.284 444.783 453.044V463.796C444.783 469.556 443.119 473.993 439.791 477.108C436.463 480.18 431.983 481.716 426.351 481.716ZM426.351 474.164C429.509 474.164 431.962 473.246 433.711 471.412C435.461 469.577 436.335 467.124 436.335 464.052V452.788C436.335 449.716 435.461 447.262 433.711 445.428C431.962 443.593 429.509 442.676 426.351 442.676C423.237 442.676 420.783 443.593 418.991 445.428C417.242 447.262 416.367 449.716 416.367 452.788V464.052C416.367 467.124 417.242 469.577 418.991 471.412C420.783 473.246 423.237 474.164 426.351 474.164ZM452.193 480.82V436.02H468.257L477.153 475.06H478.305V436.02H486.625V480.82H470.561L461.665 441.78H460.513V480.82H452.193Z" fill="#191919"/>
<path d="M177.742 574.325C182.546 580.529 191.914 580.528 196.718 574.324L225.471 537.187C226.662 535.65 229.123 536.543 229.051 538.485L227.312 585.591C227.023 593.414 234.182 599.415 241.835 597.763L287.701 587.866C289.598 587.456 290.907 589.716 289.609 591.159L258.064 626.205C252.844 632.005 254.46 641.166 261.351 644.829L302.934 666.934C304.646 667.844 304.191 670.414 302.27 670.681L255.725 677.15C247.985 678.226 243.322 686.294 246.254 693.538L263.951 737.267C264.68 739.068 262.673 740.746 261.03 739.709L221.347 714.681C214.714 710.497 205.917 713.696 203.52 721.162L189.132 765.973C188.538 767.824 185.919 767.825 185.324 765.973L170.929 721.16C168.531 713.695 159.735 710.497 153.102 714.68L113.418 739.709C111.775 740.746 109.768 739.068 110.497 737.267L128.194 693.538C131.126 686.294 126.463 678.226 118.723 677.15L72.1779 670.681C70.2572 670.414 69.8022 667.844 71.5145 666.934L113.097 644.829C119.988 641.166 121.604 632.005 116.384 626.205L84.8388 591.159C83.5407 589.716 84.8504 587.456 86.7472 587.866L132.613 597.763C140.266 599.415 147.425 593.414 147.136 585.591L145.396 538.481L140.4 538.665L145.396 538.481C145.325 536.538 147.786 535.646 148.976 537.182L177.742 574.325Z" fill="#FBBC04" stroke="#0F9D58" stroke-width="10"/>
<path d="M750.204 77.7382L749.643 77.2179L624.808 64.8968L590.576 154.232L681.999 241.435L807.088 251.807L841.045 164.53L842.088 163.062L750.204 77.7382ZM682.116 234.966L596.121 152.931L627.344 71.7151L713.655 153.942L682.116 234.966ZM633.262 70.7739L747.526 81.7699L831.927 160.13L717.502 151.001L633.262 70.7739ZM803.981 246.601L686.376 237.136L717.971 155.908L835.585 165.363L803.981 246.601Z" fill="#FBBC04"/>
<path d="M831.927 160.119L717.504 151.035L633.257 70.7776L747.536 81.7601L831.927 160.119Z" fill="#0F9D58"/>
<path d="M713.647 153.932L682.122 234.962L596.112 152.922L627.335 71.7056L713.647 153.932Z" fill="#0F9D58"/>
<path d="M835.584 165.362L803.98 246.6L686.375 237.135L717.985 155.893L835.584 165.362Z" fill="#0F9D58"/>
<path d="M169.471 637.872C166.655 637.872 164.415 637.104 162.751 635.568C161.087 634.01 160.255 631.792 160.255 628.912V623.536C160.255 620.656 161.087 618.448 162.751 616.912C164.415 615.354 166.655 614.576 169.471 614.576C172.287 614.576 174.527 615.354 176.191 616.912C177.855 618.448 178.687 620.656 178.687 623.536V628.912C178.687 631.792 177.855 634.01 176.191 635.568C174.527 637.104 172.287 637.872 169.471 637.872ZM169.471 634.096C171.05 634.096 172.276 633.637 173.151 632.72C174.026 631.802 174.463 630.576 174.463 629.04V623.408C174.463 621.872 174.026 620.645 173.151 619.728C172.276 618.81 171.05 618.352 169.471 618.352C167.914 618.352 166.687 618.81 165.791 619.728C164.916 620.645 164.479 621.872 164.479 623.408V629.04C164.479 630.576 164.916 631.802 165.791 632.72C166.687 633.637 167.914 634.096 169.471 634.096ZM182.392 637.424V615.024H190.424L194.872 634.544H195.448V615.024H199.608V637.424H191.576L187.128 617.904H186.552V637.424H182.392ZM168.543 678.872C166.815 678.872 165.29 678.562 163.967 677.944C162.644 677.325 161.61 676.44 160.863 675.288C160.116 674.136 159.743 672.749 159.743 671.128V670.232H163.903V671.128C163.903 672.472 164.319 673.485 165.151 674.168C165.983 674.829 167.114 675.16 168.543 675.16C169.994 675.16 171.071 674.872 171.775 674.296C172.5 673.72 172.863 672.984 172.863 672.088C172.863 671.469 172.682 670.968 172.319 670.584C171.978 670.2 171.466 669.89 170.783 669.656C170.122 669.4 169.311 669.165 168.351 668.952L167.615 668.792C166.079 668.45 164.756 668.024 163.647 667.512C162.559 666.978 161.716 666.285 161.119 665.432C160.543 664.578 160.255 663.469 160.255 662.104C160.255 660.738 160.575 659.576 161.215 658.616C161.876 657.634 162.794 656.888 163.967 656.376C165.162 655.842 166.559 655.576 168.159 655.576C169.759 655.576 171.178 655.853 172.415 656.408C173.674 656.941 174.655 657.752 175.359 658.84C176.084 659.906 176.447 661.25 176.447 662.872V663.832H172.287V662.872C172.287 662.018 172.116 661.336 171.775 660.824C171.455 660.29 170.986 659.906 170.367 659.672C169.748 659.416 169.012 659.288 168.159 659.288C166.879 659.288 165.93 659.533 165.311 660.024C164.714 660.493 164.415 661.144 164.415 661.976C164.415 662.53 164.554 663 164.831 663.384C165.13 663.768 165.567 664.088 166.143 664.344C166.719 664.6 167.455 664.824 168.351 665.016L169.087 665.176C170.687 665.517 172.074 665.954 173.247 666.488C174.442 667.021 175.37 667.725 176.031 668.6C176.692 669.474 177.023 670.594 177.023 671.96C177.023 673.325 176.671 674.53 175.967 675.576C175.284 676.6 174.303 677.41 173.023 678.008C171.764 678.584 170.271 678.872 168.543 678.872ZM180.173 678.424V656.024H184.397V678.424H180.173ZM193.795 678.424V659.864H187.267V656.024H204.547V659.864H198.019V678.424H193.795ZM207.423 678.424V656.024H221.823V659.864H211.647V665.208H220.927V669.048H211.647V674.584H222.015V678.424H207.423ZM225.75 671.064V656.024H229.846V671.064H225.75ZM227.798 678.872C226.945 678.872 226.219 678.594 225.622 678.04C225.046 677.464 224.758 676.728 224.758 675.832C224.758 674.936 225.046 674.21 225.622 673.656C226.219 673.08 226.945 672.792 227.798 672.792C228.673 672.792 229.398 673.08 229.974 673.656C230.55 674.21 230.838 674.936 230.838 675.832C230.838 676.728 230.55 677.464 229.974 678.04C229.398 678.594 228.673 678.872 227.798 678.872Z" fill="black"/>
<g clip-path="url(#clip0_116_1836)">
<path d="M631.845 259.43H635.185C642.231 259.43 648.988 262.223 653.97 267.194C658.952 272.166 661.75 278.908 661.75 285.938V293.626C661.75 300.656 658.952 307.398 653.97 312.37C648.988 317.341 642.231 320.134 635.185 320.134H631.845V259.43Z" fill="#FBBC04" stroke="black"/>
<path d="M631.834 284.618L631.834 284.618C633.912 287.416 635.418 290.594 636.265 293.973C637.111 297.351 637.283 300.863 636.769 304.307C636.256 307.752 635.067 311.061 633.271 314.047C631.475 317.033 629.107 319.637 626.303 321.709C626.303 321.709 626.303 321.709 626.303 321.709L623.618 323.691L587.419 274.874L590.096 272.897C595.759 268.715 602.856 266.95 609.824 267.989C616.792 269.028 623.061 272.787 627.252 278.438L631.834 284.618Z" fill="#0F9D58" stroke="black"/>
<path d="M560.901 313.698L561.877 310.512C563.937 303.788 568.589 298.157 574.81 294.856C581.031 291.556 588.311 290.856 595.049 292.912L602.416 295.159C609.154 297.215 614.797 301.858 618.105 308.065C621.413 314.273 622.113 321.537 620.054 328.26L619.078 331.446L560.901 313.698Z" fill="#FBBC04" stroke="black"/>
<path d="M585.049 321.057L585.049 321.057C591.689 318.709 598.991 319.089 605.35 322.113C611.709 325.137 616.603 330.557 618.958 337.181L620.072 340.321L562.723 360.587L561.613 357.46C559.262 350.833 559.644 343.545 562.677 337.199C565.71 330.853 571.146 325.97 577.787 323.623L585.049 321.057Z" fill="#0F9D58" stroke="black"/>
<path d="M626.153 346.925L592.149 397.232L589.404 395.385C583.563 391.453 579.527 385.367 578.182 378.466C576.838 371.564 578.296 364.413 582.236 358.584L586.543 352.211C590.483 346.394 596.575 342.374 603.482 341.033C610.389 339.693 617.547 341.142 623.385 345.062L626.153 346.925Z" fill="#4285F4" stroke="black"/>
<path d="M637.651 409.222L634.315 409.367C627.275 409.674 620.403 407.177 615.208 402.428C610.014 397.678 606.923 391.064 606.616 384.04L606.28 376.36C605.973 369.337 608.474 362.479 613.233 357.295C617.993 352.112 624.622 349.027 631.661 348.721L634.998 348.575L637.651 409.222Z" fill="#EA4335" stroke="black"/>
<path d="M681.37 391.846L678.775 393.943C673.3 398.367 666.287 400.44 659.28 399.705C652.273 398.97 645.846 395.488 641.412 390.024L636.564 384.05C632.13 378.586 630.053 371.589 630.79 364.597C631.526 357.604 635.016 351.191 640.491 346.766L643.087 344.669L681.37 391.846Z" fill="#FBBC04" stroke="black"/>
<path d="M671.279 269.817L674.126 271.558C680.134 275.232 684.433 281.136 686.077 287.973C687.722 294.809 686.578 302.017 682.897 308.011L678.872 314.566C675.191 320.56 669.274 324.85 662.423 326.491C655.572 328.133 648.349 326.991 642.341 323.317L639.494 321.576L671.279 269.817Z" fill="#EA4335" stroke="black"/>
<path d="M701.75 299.87L703.001 302.959C705.64 309.477 705.576 316.775 702.823 323.247C700.07 329.718 694.854 334.834 688.321 337.468L681.16 340.355C674.628 342.989 667.314 342.925 660.829 340.178C654.343 337.431 649.217 332.225 646.578 325.707L645.327 322.618L701.75 299.87Z" fill="#4285F4" stroke="black"/>
<path d="M705.622 346.666L704.786 349.892C703.022 356.698 698.62 362.527 692.55 366.095C686.479 369.663 679.237 370.679 672.415 368.919L664.957 366.994C658.136 365.234 652.294 360.841 648.719 354.783C645.143 348.725 644.125 341.499 645.889 334.692L646.725 331.467L705.622 346.666Z" fill="#0F9D58" stroke="black"/>
</g>
<path d="M847.056 164.282L848.512 160.5L845.549 157.737L754.127 72.5061L752.635 71.1147L750.604 70.9216L625.376 59.0178L620.853 58.5879L619.213 62.8249L584.93 151.389L583.469 155.163L586.42 157.931L678.793 244.591L680.306 246.01L682.372 246.192L806.648 257.143L811.15 257.54L812.774 253.322L847.056 164.282Z" stroke="white" stroke-width="12"/>
<path d="M369.112 534.794V512.394H376.952L380.824 531.914H381.4L385.272 512.394H393.112V534.794H389.016V515.498H388.44L384.6 534.794H377.624L373.784 515.498H373.208V534.794H369.112ZM402.387 535.242C401.256 535.242 400.243 535.05 399.347 534.666C398.451 534.261 397.736 533.685 397.203 532.938C396.691 532.17 396.435 531.242 396.435 530.154C396.435 529.066 396.691 528.159 397.203 527.434C397.736 526.687 398.461 526.133 399.379 525.77C400.317 525.386 401.384 525.194 402.579 525.194H406.931V524.298C406.931 523.551 406.696 522.943 406.227 522.474C405.757 521.983 405.011 521.738 403.987 521.738C402.984 521.738 402.237 521.973 401.747 522.442C401.256 522.89 400.936 523.477 400.787 524.202L397.075 522.954C397.331 522.143 397.736 521.407 398.291 520.746C398.867 520.063 399.624 519.519 400.563 519.114C401.523 518.687 402.685 518.474 404.051 518.474C406.141 518.474 407.795 518.997 409.011 520.042C410.227 521.087 410.835 522.602 410.835 524.586V530.506C410.835 531.146 411.133 531.466 411.731 531.466H413.011V534.794H410.323C409.533 534.794 408.883 534.602 408.371 534.218C407.859 533.834 407.603 533.322 407.603 532.682V532.65H406.995C406.909 532.906 406.717 533.247 406.419 533.674C406.12 534.079 405.651 534.442 405.011 534.762C404.371 535.082 403.496 535.242 402.387 535.242ZM403.091 531.978C404.221 531.978 405.139 531.669 405.843 531.05C406.568 530.41 406.931 529.567 406.931 528.522V528.202H402.867C402.12 528.202 401.533 528.362 401.107 528.682C400.68 529.002 400.467 529.45 400.467 530.026C400.467 530.602 400.691 531.071 401.139 531.434C401.587 531.797 402.237 531.978 403.091 531.978ZM415.959 534.794V518.922H419.927V520.714H420.503C420.737 520.074 421.121 519.605 421.655 519.306C422.209 519.007 422.849 518.858 423.575 518.858H425.495V522.442H423.511C422.487 522.442 421.644 522.719 420.983 523.274C420.321 523.807 419.991 524.639 419.991 525.77V534.794H415.959ZM435.54 535.242C434.004 535.242 432.606 534.922 431.348 534.282C430.11 533.642 429.129 532.714 428.404 531.498C427.678 530.282 427.316 528.81 427.316 527.082V526.634C427.316 524.906 427.678 523.434 428.404 522.218C429.129 521.002 430.11 520.074 431.348 519.434C432.606 518.794 434.004 518.474 435.54 518.474C437.054 518.474 438.356 518.741 439.444 519.274C440.532 519.807 441.406 520.543 442.068 521.482C442.75 522.399 443.198 523.445 443.412 524.618L439.508 525.45C439.422 524.81 439.23 524.234 438.932 523.722C438.633 523.21 438.206 522.805 437.652 522.506C437.118 522.207 436.446 522.058 435.636 522.058C434.825 522.058 434.089 522.239 433.428 522.602C432.788 522.943 432.276 523.466 431.892 524.17C431.529 524.853 431.348 525.695 431.348 526.698V527.018C431.348 528.021 431.529 528.874 431.892 529.578C432.276 530.261 432.788 530.783 433.428 531.146C434.089 531.487 434.825 531.658 435.636 531.658C436.852 531.658 437.769 531.349 438.388 530.73C439.028 530.09 439.433 529.258 439.604 528.234L443.508 529.162C443.23 530.293 442.75 531.327 442.068 532.266C441.406 533.183 440.532 533.909 439.444 534.442C438.356 534.975 437.054 535.242 435.54 535.242ZM446.834 534.794V512.394H450.866V520.874H451.442C451.612 520.533 451.879 520.191 452.242 519.85C452.604 519.509 453.084 519.231 453.682 519.018C454.3 518.783 455.079 518.666 456.018 518.666C457.255 518.666 458.332 518.954 459.25 519.53C460.188 520.085 460.914 520.863 461.426 521.866C461.938 522.847 462.194 523.999 462.194 525.322V534.794H458.162V525.642C458.162 524.447 457.863 523.551 457.266 522.954C456.69 522.357 455.858 522.058 454.77 522.058C453.532 522.058 452.572 522.474 451.89 523.306C451.207 524.117 450.866 525.258 450.866 526.73V534.794H446.834ZM480.694 534.794V515.402H480.118L477.11 522.506H472.822L477.398 512.394H484.79V534.794H480.694ZM496.602 535.242C494.853 535.242 493.338 534.933 492.058 534.314C490.8 533.695 489.829 532.821 489.146 531.69C488.464 530.559 488.122 529.247 488.122 527.754V527.434H492.282V527.722C492.282 528.789 492.634 529.706 493.338 530.474C494.064 531.221 495.13 531.594 496.538 531.594C497.946 531.594 499.024 531.221 499.77 530.474C500.538 529.706 500.922 528.714 500.922 527.498V527.178C500.922 525.983 500.538 525.034 499.77 524.33C499.024 523.626 498.085 523.274 496.954 523.274C496.336 523.274 495.824 523.359 495.418 523.53C495.013 523.701 494.682 523.914 494.426 524.17C494.17 524.426 493.957 524.682 493.786 524.938H488.826V512.394H504.122V516.106H492.922V521.578H493.498C493.712 521.301 494 521.034 494.362 520.778C494.725 520.522 495.194 520.309 495.77 520.138C496.346 519.967 497.029 519.882 497.818 519.882C499.141 519.882 500.346 520.159 501.434 520.714C502.522 521.269 503.386 522.09 504.026 523.178C504.688 524.245 505.018 525.567 505.018 527.146V527.53C505.018 529.109 504.677 530.474 503.994 531.626C503.333 532.778 502.373 533.674 501.114 534.314C499.856 534.933 498.352 535.242 496.602 535.242ZM514.414 534.794C513.368 534.794 512.515 534.474 511.854 533.834C511.214 533.173 510.894 532.298 510.894 531.21V522.25H506.926V518.922H510.894V513.994H514.926V518.922H519.278V522.25H514.926V530.506C514.926 531.146 515.224 531.466 515.822 531.466H518.894V534.794H514.414ZM522.928 534.794V512.394H526.96V520.874H527.536C527.706 520.533 527.973 520.191 528.336 519.85C528.698 519.509 529.178 519.231 529.776 519.018C530.394 518.783 531.173 518.666 532.112 518.666C533.349 518.666 534.426 518.954 535.344 519.53C536.282 520.085 537.008 520.863 537.52 521.866C538.032 522.847 538.288 523.999 538.288 525.322V534.794H534.256V525.642C534.256 524.447 533.957 523.551 533.36 522.954C532.784 522.357 531.952 522.058 530.864 522.058C529.626 522.058 528.666 522.474 527.984 523.306C527.301 524.117 526.96 525.258 526.96 526.73V534.794H522.928ZM549.864 528.458V524.81H559.336V528.458H549.864ZM577.037 534.794V515.402H576.461L573.453 522.506H569.165L573.741 512.394H581.133V534.794H577.037ZM587.442 534.794V533.962C587.442 533.13 587.506 532.426 587.634 531.85C587.762 531.253 588.039 530.581 588.466 529.834L595.986 516.554V516.042H584.082V512.394H600.21V517.258L592.274 531.434C591.997 531.925 591.805 532.362 591.698 532.746C591.591 533.13 591.538 533.599 591.538 534.154V534.794H587.442ZM609.289 534.794C608.243 534.794 607.39 534.474 606.729 533.834C606.089 533.173 605.769 532.298 605.769 531.21V522.25H601.801V518.922H605.769V513.994H609.801V518.922H614.153V522.25H609.801V530.506C609.801 531.146 610.099 531.466 610.697 531.466H613.769V534.794H609.289ZM617.803 534.794V512.394H621.835V520.874H622.411C622.581 520.533 622.848 520.191 623.211 519.85C623.573 519.509 624.053 519.231 624.651 519.018C625.269 518.783 626.048 518.666 626.987 518.666C628.224 518.666 629.301 518.954 630.219 519.53C631.157 520.085 631.883 520.863 632.395 521.866C632.907 522.847 633.163 523.999 633.163 525.322V534.794H629.131V525.642C629.131 524.447 628.832 523.551 628.235 522.954C627.659 522.357 626.827 522.058 625.739 522.058C624.501 522.058 623.541 522.474 622.859 523.306C622.176 524.117 621.835 525.258 621.835 526.73V534.794H617.803Z" fill="black"/>
<path d="M431.272 575.794L425.576 553.394H429.928L434.664 573.074H435.112L439.848 553.394H444.2L438.504 575.794H431.272ZM446.893 575.794V553.394H451.117V575.794H446.893ZM460.515 575.794V557.234H453.987V553.394H471.267V557.234H464.739V575.794H460.515ZM471.497 580.498V578.322H472.745C473.726 578.322 474.217 577.831 474.217 576.85V575.826H473.673C472.819 575.826 472.105 575.57 471.529 575.058C470.974 574.546 470.697 573.895 470.697 573.106C470.697 572.253 470.974 571.559 471.529 571.026C472.105 570.493 472.819 570.226 473.673 570.226C474.547 570.226 475.262 570.503 475.817 571.058C476.371 571.591 476.649 572.317 476.649 573.234V576.914C476.649 579.303 475.454 580.498 473.065 580.498H471.497ZM496.155 576.242C493.382 576.242 491.185 575.474 489.563 573.938C487.942 572.381 487.131 570.162 487.131 567.282V561.906C487.131 559.026 487.942 556.818 489.563 555.282C491.185 553.725 493.382 552.946 496.155 552.946C498.907 552.946 501.03 553.703 502.523 555.218C504.038 556.711 504.795 558.77 504.795 561.394V561.586H500.635V561.266C500.635 559.943 500.262 558.855 499.515 558.002C498.79 557.149 497.67 556.722 496.155 556.722C494.662 556.722 493.489 557.181 492.635 558.098C491.782 559.015 491.355 560.263 491.355 561.842V567.346C491.355 568.903 491.782 570.151 492.635 571.09C493.489 572.007 494.662 572.466 496.155 572.466C497.67 572.466 498.79 572.039 499.515 571.186C500.262 570.311 500.635 569.223 500.635 567.922V567.346H504.795V567.794C504.795 570.418 504.038 572.487 502.523 574.002C501.03 575.495 498.907 576.242 496.155 576.242ZM508.365 575.794V553.394H512.397V561.874H512.973C513.144 561.533 513.41 561.191 513.773 560.85C514.136 560.509 514.616 560.231 515.213 560.018C515.832 559.783 516.61 559.666 517.549 559.666C518.786 559.666 519.864 559.954 520.781 560.53C521.72 561.085 522.445 561.863 522.957 562.866C523.469 563.847 523.725 564.999 523.725 566.322V575.794H519.693V566.642C519.693 565.447 519.394 564.551 518.797 563.954C518.221 563.357 517.389 563.058 516.301 563.058C515.064 563.058 514.104 563.474 513.421 564.306C512.738 565.117 512.397 566.258 512.397 567.73V575.794H508.365ZM535.316 576.242C533.737 576.242 532.34 575.911 531.124 575.25C529.929 574.567 528.99 573.618 528.308 572.402C527.646 571.165 527.316 569.714 527.316 568.05V567.666C527.316 566.002 527.646 564.562 528.308 563.346C528.969 562.109 529.897 561.159 531.092 560.498C532.286 559.815 533.673 559.474 535.252 559.474C536.809 559.474 538.164 559.826 539.316 560.53C540.468 561.213 541.364 562.173 542.004 563.41C542.644 564.626 542.964 566.045 542.964 567.666V569.042H531.412C531.454 570.13 531.86 571.015 532.628 571.698C533.396 572.381 534.334 572.722 535.444 572.722C536.574 572.722 537.406 572.477 537.94 571.986C538.473 571.495 538.878 570.951 539.156 570.354L542.452 572.082C542.153 572.637 541.716 573.245 541.14 573.906C540.585 574.546 539.838 575.101 538.9 575.57C537.961 576.018 536.766 576.242 535.316 576.242ZM531.444 566.034H538.868C538.782 565.117 538.409 564.381 537.748 563.826C537.108 563.271 536.265 562.994 535.22 562.994C534.132 562.994 533.268 563.271 532.628 563.826C531.988 564.381 531.593 565.117 531.444 566.034ZM546.553 575.794V559.922H550.521V562.002H551.097C551.353 561.447 551.833 560.925 552.536 560.434C553.241 559.922 554.307 559.666 555.737 559.666C556.974 559.666 558.051 559.954 558.969 560.53C559.907 561.085 560.633 561.863 561.145 562.866C561.657 563.847 561.913 564.999 561.913 566.322V575.794H557.881V566.642C557.881 565.447 557.582 564.551 556.985 563.954C556.409 563.357 555.577 563.058 554.489 563.058C553.251 563.058 552.291 563.474 551.609 564.306C550.926 565.117 550.585 566.258 550.585 567.73V575.794H546.553ZM566.271 575.794V559.922H570.239V562.002H570.815C571.071 561.447 571.551 560.925 572.255 560.434C572.959 559.922 574.026 559.666 575.455 559.666C576.693 559.666 577.77 559.954 578.687 560.53C579.626 561.085 580.351 561.863 580.863 562.866C581.375 563.847 581.631 564.999 581.631 566.322V575.794H577.599V566.642C577.599 565.447 577.301 564.551 576.703 563.954C576.127 563.357 575.295 563.058 574.207 563.058C572.97 563.058 572.01 563.474 571.327 564.306C570.645 565.117 570.303 566.258 570.303 567.73V575.794H566.271ZM590.918 576.242C589.787 576.242 588.774 576.05 587.878 575.666C586.982 575.261 586.267 574.685 585.734 573.938C585.222 573.17 584.966 572.242 584.966 571.154C584.966 570.066 585.222 569.159 585.734 568.434C586.267 567.687 586.993 567.133 587.91 566.77C588.849 566.386 589.915 566.194 591.11 566.194H595.462V565.298C595.462 564.551 595.227 563.943 594.758 563.474C594.289 562.983 593.542 562.738 592.518 562.738C591.515 562.738 590.769 562.973 590.278 563.442C589.787 563.89 589.467 564.477 589.318 565.202L585.606 563.954C585.862 563.143 586.267 562.407 586.822 561.746C587.398 561.063 588.155 560.519 589.094 560.114C590.054 559.687 591.217 559.474 592.582 559.474C594.673 559.474 596.326 559.997 597.542 561.042C598.758 562.087 599.366 563.602 599.366 565.586V571.506C599.366 572.146 599.665 572.466 600.262 572.466H601.542V575.794H598.854C598.065 575.794 597.414 575.602 596.902 575.218C596.39 574.834 596.134 574.322 596.134 573.682V573.65H595.526C595.441 573.906 595.249 574.247 594.95 574.674C594.651 575.079 594.182 575.442 593.542 575.762C592.902 576.082 592.027 576.242 590.918 576.242ZM591.622 572.978C592.753 572.978 593.67 572.669 594.374 572.05C595.099 571.41 595.462 570.567 595.462 569.522V569.202H591.398C590.651 569.202 590.065 569.362 589.638 569.682C589.211 570.002 588.998 570.45 588.998 571.026C588.998 571.602 589.222 572.071 589.67 572.434C590.118 572.797 590.769 572.978 591.622 572.978ZM604.49 575.794V559.922H608.522V575.794H604.49ZM606.506 558.066C605.781 558.066 605.162 557.831 604.65 557.362C604.159 556.893 603.914 556.274 603.914 555.506C603.914 554.738 604.159 554.119 604.65 553.65C605.162 553.181 605.781 552.946 606.506 552.946C607.253 552.946 607.871 553.181 608.362 553.65C608.853 554.119 609.098 554.738 609.098 555.506C609.098 556.274 608.853 556.893 608.362 557.362C607.871 557.831 607.253 558.066 606.506 558.066Z" fill="black"/>
<defs>
<clipPath id="clip0_116_1836">
<rect width="146.655" height="150.963" fill="white" transform="translate(559.575 258.93)"/>
</clipPath>
</defs>
</svg>
