<svg width="188" height="28" viewBox="0 0 188 28" fill="none" xmlns="http://www.w3.org/2000/svg">
<path d="M9.94072 5.63932C9.94072 6.96476 9.54751 8.02068 8.76109 8.80711C7.87746 9.74375 6.7155 10.2121 5.27519 10.2121C3.89674 10.2121 2.73036 9.73491 1.77605 8.7806C0.821734 7.82629 0.344578 6.65107 0.344578 5.25495C0.344578 3.85882 0.821734 2.6836 1.77605 1.72929C2.73036 0.774977 3.89674 0.297821 5.27519 0.297821C5.97326 0.297821 6.63155 0.421528 7.25009 0.668942C7.86863 0.916357 8.37671 1.26539 8.77434 1.71604L7.89955 2.59082C7.60796 2.23737 7.228 1.96345 6.75968 1.76905C6.3002 1.56582 5.80537 1.4642 5.27519 1.4642C4.24135 1.4642 3.36657 1.82207 2.65083 2.53781C1.94394 3.26238 1.59049 4.16809 1.59049 5.25495C1.59049 6.3418 1.94394 7.24751 2.65083 7.97209C3.36657 8.68782 4.24135 9.04569 5.27519 9.04569C6.22067 9.04569 7.00709 8.7806 7.63447 8.25043C8.26184 7.72025 8.62412 6.99126 8.72132 6.06346H5.27519V4.92359H9.87445C9.91863 5.171 9.94072 5.40958 9.94072 5.63932ZM10.7744 6.75269C10.7744 5.75419 11.0881 4.928 11.7155 4.27412C12.3517 3.62024 13.1513 3.2933 14.1145 3.2933C15.0776 3.2933 15.8729 3.62024 16.5003 4.27412C17.1365 4.928 17.4546 5.75419 17.4546 6.75269C17.4546 7.76002 17.1365 8.5862 16.5003 9.23125C15.8729 9.88513 15.0776 10.2121 14.1145 10.2121C13.1513 10.2121 12.3517 9.88513 11.7155 9.23125C11.0881 8.57737 10.7744 7.75118 10.7744 6.75269ZM11.9938 6.75269C11.9938 7.45075 12.197 8.01627 12.6035 8.44924C13.01 8.88222 13.5136 9.0987 14.1145 9.0987C14.7154 9.0987 15.219 8.88222 15.6255 8.44924C16.032 8.01627 16.2352 7.45075 16.2352 6.75269C16.2352 6.06346 16.032 5.50236 15.6255 5.06938C15.2102 4.62757 14.7065 4.40667 14.1145 4.40667C13.5225 4.40667 13.0188 4.62757 12.6035 5.06938C12.197 5.50236 11.9938 6.06346 11.9938 6.75269ZM18.1911 6.75269C18.1911 5.75419 18.5048 4.928 19.1322 4.27412C19.7684 3.62024 20.5681 3.2933 21.5312 3.2933C22.4944 3.2933 23.2896 3.62024 23.917 4.27412C24.5532 4.928 24.8713 5.75419 24.8713 6.75269C24.8713 7.76002 24.5532 8.5862 23.917 9.23125C23.2896 9.88513 22.4944 10.2121 21.5312 10.2121C20.5681 10.2121 19.7684 9.88513 19.1322 9.23125C18.5048 8.57737 18.1911 7.75118 18.1911 6.75269ZM19.4105 6.75269C19.4105 7.45075 19.6138 8.01627 20.0202 8.44924C20.4267 8.88222 20.9304 9.0987 21.5312 9.0987C22.1321 9.0987 22.6358 8.88222 23.0422 8.44924C23.4487 8.01627 23.6519 7.45075 23.6519 6.75269C23.6519 6.06346 23.4487 5.50236 23.0422 5.06938C22.6269 4.62757 22.1233 4.40667 21.5312 4.40667C20.9392 4.40667 20.4355 4.62757 20.0202 5.06938C19.6138 5.50236 19.4105 6.06346 19.4105 6.75269ZM28.895 9.0987C29.4958 9.0987 29.9862 8.88222 30.3662 8.44924C30.7638 8.01627 30.9626 7.45075 30.9626 6.75269C30.9626 6.0723 30.7638 5.5112 30.3662 5.06938C29.9774 4.62757 29.487 4.40667 28.895 4.40667C28.3118 4.40667 27.8214 4.62757 27.4237 5.06938C27.0261 5.5112 26.8273 6.0723 26.8273 6.75269C26.8273 7.44191 27.0261 8.00301 27.4237 8.43599C27.8214 8.8778 28.3118 9.0987 28.895 9.0987ZM28.8552 13.075C28.4929 13.075 28.1527 13.0264 27.8346 12.9292C27.5165 12.8408 27.2249 12.7127 26.9598 12.5448C26.7036 12.3769 26.4827 12.1781 26.2971 11.9484C26.1116 11.7186 25.9702 11.4624 25.873 11.1796L27.0261 10.7025C27.1586 11.0824 27.3884 11.3873 27.7153 11.617C28.0423 11.8468 28.4222 11.9616 28.8552 11.9616C29.5179 11.9616 30.0348 11.7628 30.406 11.3652C30.7771 10.9676 30.9626 10.4197 30.9626 9.72166V9.0987H30.9096C30.6799 9.44332 30.3662 9.71724 29.9686 9.92047C29.5798 10.1149 29.1556 10.2121 28.6962 10.2121C27.8479 10.2121 27.1189 9.88071 26.5092 9.21799C25.9083 8.5376 25.6079 7.71583 25.6079 6.75269C25.6079 5.78954 25.9083 4.97219 26.5092 4.30063C27.1189 3.62908 27.8479 3.2933 28.6962 3.2933C29.1556 3.2933 29.5798 3.39492 29.9686 3.59815C30.3662 3.79255 30.6799 4.06205 30.9096 4.40667H30.9626V3.50537H32.129V9.72166C32.129 10.7643 31.833 11.5817 31.241 12.1737C30.6401 12.7746 29.8449 13.075 28.8552 13.075ZM34.8352 0.509891V10H33.6158V0.509891H34.8352ZM39.1723 10.2121C38.2179 10.2121 37.4315 9.88513 36.813 9.23125C36.1944 8.57737 35.8852 7.75118 35.8852 6.75269C35.8852 5.76303 36.1856 4.94126 36.7865 4.28738C37.3873 3.62466 38.1561 3.2933 39.0927 3.2933C40.0559 3.2933 40.8202 3.60699 41.3857 4.23436C41.9601 4.8529 42.2473 5.72327 42.2473 6.84547L42.234 6.97801H37.1311C37.1488 7.61422 37.3608 8.12672 37.7673 8.51551C38.1738 8.90431 38.6598 9.0987 39.2253 9.0987C40.0029 9.0987 40.6126 8.70991 41.0544 7.93232L42.1412 8.4625C41.8496 9.01034 41.4432 9.4389 40.9218 9.74817C40.4093 10.0574 39.8261 10.2121 39.1723 10.2121ZM37.2239 5.97068H40.9483C40.913 5.52003 40.7274 5.14891 40.3917 4.85732C40.0647 4.55688 39.6229 4.40667 39.0662 4.40667C38.6067 4.40667 38.2091 4.54805 37.8733 4.83081C37.5464 5.11357 37.3299 5.49352 37.2239 5.97068ZM46.4868 10V0.509891H49.3895C50.8387 0.509891 52.0006 0.947284 52.8754 1.82207C53.759 2.69686 54.2008 3.84115 54.2008 5.25495C54.2008 6.67758 53.759 7.82629 52.8754 8.70107C52.0006 9.56702 50.8387 10 49.3895 10H46.4868ZM47.7062 1.67627V8.83362H49.3895C50.494 8.83362 51.3644 8.51993 52.0006 7.89256C52.6368 7.25635 52.9549 6.37715 52.9549 5.25495C52.9549 4.14158 52.6368 3.26679 52.0006 2.63059C51.3644 1.99438 50.494 1.67627 49.3895 1.67627H47.7062ZM58.1607 10.2121C57.2064 10.2121 56.4199 9.88513 55.8014 9.23125C55.1829 8.57737 54.8736 7.75118 54.8736 6.75269C54.8736 5.76303 55.174 4.94126 55.7749 4.28738C56.3758 3.62466 57.1445 3.2933 58.0811 3.2933C59.0443 3.2933 59.8086 3.60699 60.3741 4.23436C60.9485 4.8529 61.2357 5.72327 61.2357 6.84547L61.2224 6.97801H56.1195C56.1372 7.61422 56.3492 8.12672 56.7557 8.51551C57.1622 8.90431 57.6482 9.0987 58.2137 9.0987C58.9913 9.0987 59.601 8.70991 60.0428 7.93232L61.1296 8.4625C60.838 9.01034 60.4316 9.4389 59.9102 9.74817C59.3977 10.0574 58.8146 10.2121 58.1607 10.2121ZM56.2123 5.97068H59.9368C59.9014 5.52003 59.7158 5.14891 59.3801 4.85732C59.0531 4.55688 58.6113 4.40667 58.0546 4.40667C57.5952 4.40667 57.1975 4.54805 56.8617 4.83081C56.5348 5.11357 56.3183 5.49352 56.2123 5.97068ZM65.3759 10H64.1565L61.5321 3.50537H62.8576L64.7662 8.54202H64.7927L66.7278 3.50537H68.0267L65.3759 10ZM71.5445 10.2121C70.5902 10.2121 69.8037 9.88513 69.1852 9.23125C68.5667 8.57737 68.2574 7.75118 68.2574 6.75269C68.2574 5.76303 68.5578 4.94126 69.1587 4.28738C69.7595 3.62466 70.5283 3.2933 71.4649 3.2933C72.4281 3.2933 73.1924 3.60699 73.7579 4.23436C74.3323 4.8529 74.6195 5.72327 74.6195 6.84547L74.6062 6.97801H69.5033C69.521 7.61422 69.733 8.12672 70.1395 8.51551C70.546 8.90431 71.032 9.0987 71.5975 9.0987C72.3751 9.0987 72.9848 8.70991 73.4266 7.93232L74.5134 8.4625C74.2218 9.01034 73.8154 9.4389 73.294 9.74817C72.7815 10.0574 72.1983 10.2121 71.5445 10.2121ZM69.5961 5.97068H73.3205C73.2852 5.52003 73.0996 5.14891 72.7639 4.85732C72.4369 4.55688 71.9951 4.40667 71.4384 4.40667C70.9789 4.40667 70.5813 4.54805 70.2455 4.83081C69.9186 5.11357 69.7021 5.49352 69.5961 5.97068ZM76.954 0.509891V10H75.7346V0.509891H76.954ZM78.0039 6.75269C78.0039 5.75419 78.3176 4.928 78.945 4.27412C79.5812 3.62024 80.3809 3.2933 81.344 3.2933C82.3072 3.2933 83.1024 3.62024 83.7298 4.27412C84.366 4.928 84.6841 5.75419 84.6841 6.75269C84.6841 7.76002 84.366 8.5862 83.7298 9.23125C83.1024 9.88513 82.3072 10.2121 81.344 10.2121C80.3809 10.2121 79.5812 9.88513 78.945 9.23125C78.3176 8.57737 78.0039 7.75118 78.0039 6.75269ZM79.2233 6.75269C79.2233 7.45075 79.4266 8.01627 79.833 8.44924C80.2395 8.88222 80.7431 9.0987 81.344 9.0987C81.9449 9.0987 82.4485 8.88222 82.855 8.44924C83.2615 8.01627 83.4647 7.45075 83.4647 6.75269C83.4647 6.06346 83.2615 5.50236 82.855 5.06938C82.4397 4.62757 81.936 4.40667 81.344 4.40667C80.752 4.40667 80.2483 4.62757 79.833 5.06938C79.4266 5.50236 79.2233 6.06346 79.2233 6.75269ZM88.9082 9.0987C89.4914 9.0987 89.9818 8.8778 90.3794 8.43599C90.777 8.00301 90.9758 7.44191 90.9758 6.75269C90.9758 6.0723 90.777 5.5112 90.3794 5.06938C89.9818 4.62757 89.4914 4.40667 88.9082 4.40667C88.3161 4.40667 87.8213 4.62757 87.4237 5.06938C87.0349 5.5112 86.8405 6.0723 86.8405 6.75269C86.8405 7.44191 87.0349 8.00743 87.4237 8.44924C87.8213 8.88222 88.3161 9.0987 88.9082 9.0987ZM89.107 10.2121C88.6298 10.2121 88.1924 10.1105 87.7948 9.90722C87.406 9.70399 87.1056 9.43448 86.8935 9.0987H86.8405L86.8935 10V12.8629H85.6741V3.50537H86.8405V4.40667H86.8935C87.1056 4.07089 87.406 3.80139 87.7948 3.59815C88.1924 3.39492 88.6298 3.2933 89.107 3.2933C89.9641 3.2933 90.6887 3.62908 91.2807 4.30063C91.8904 4.98102 92.1952 5.79837 92.1952 6.75269C92.1952 7.71583 91.8904 8.53319 91.2807 9.20474C90.6887 9.87629 89.9641 10.2121 89.107 10.2121ZM96.2281 10.2121C95.2737 10.2121 94.4873 9.88513 93.8688 9.23125C93.2503 8.57737 92.941 7.75118 92.941 6.75269C92.941 5.76303 93.2414 4.94126 93.8423 4.28738C94.4431 3.62466 95.2119 3.2933 96.1485 3.2933C97.1117 3.2933 97.876 3.60699 98.4415 4.23436C99.0159 4.8529 99.3031 5.72327 99.3031 6.84547L99.2898 6.97801H94.1869C94.2046 7.61422 94.4166 8.12672 94.8231 8.51551C95.2296 8.90431 95.7156 9.0987 96.2811 9.0987C97.0587 9.0987 97.6684 8.70991 98.1102 7.93232L99.197 8.4625C98.9054 9.01034 98.499 9.4389 97.9776 9.74817C97.4651 10.0574 96.8819 10.2121 96.2281 10.2121ZM94.2797 5.97068H98.0041C97.9688 5.52003 97.7832 5.14891 97.4475 4.85732C97.1205 4.55688 96.6787 4.40667 96.122 4.40667C95.6625 4.40667 95.2649 4.54805 94.9291 4.83081C94.6022 5.11357 94.3857 5.49352 94.2797 5.97068ZM101.638 10H100.418V3.50537H101.585V4.56572H101.638C101.761 4.22111 102.013 3.92951 102.393 3.69093C102.782 3.44352 103.162 3.31981 103.533 3.31981C103.887 3.31981 104.187 3.37283 104.434 3.47886L104.063 4.6585C103.913 4.59665 103.674 4.56572 103.348 4.56572C102.888 4.56572 102.486 4.75128 102.141 5.1224C101.806 5.49352 101.638 5.9265 101.638 6.42133V10ZM113.815 7.46842C113.815 8.29903 113.51 8.96616 112.9 9.46983C112.282 9.96466 111.531 10.2121 110.647 10.2121C109.861 10.2121 109.167 9.98233 108.566 9.52284C107.965 9.06336 107.55 8.43599 107.32 7.64073L108.487 7.16357C108.566 7.44633 108.677 7.70258 108.818 7.93232C108.959 8.16206 109.123 8.36088 109.308 8.52877C109.503 8.68782 109.715 8.81595 109.945 8.91314C110.174 9.00151 110.417 9.04569 110.674 9.04569C111.23 9.04569 111.685 8.90431 112.039 8.62155C112.392 8.32995 112.569 7.94558 112.569 7.46842C112.569 7.07079 112.423 6.7306 112.132 6.44784C111.858 6.17391 111.345 5.90883 110.594 5.65258C109.834 5.37865 109.361 5.19309 109.176 5.09589C108.169 4.58339 107.665 3.82789 107.665 2.8294C107.665 2.13134 107.943 1.53489 108.5 1.04006C109.065 0.545235 109.759 0.297821 110.581 0.297821C111.305 0.297821 111.933 0.483382 112.463 0.854503C112.993 1.21679 113.347 1.67185 113.523 2.2197L112.383 2.69686C112.277 2.34341 112.065 2.05181 111.747 1.82207C111.438 1.58349 111.058 1.4642 110.607 1.4642C110.13 1.4642 109.728 1.59675 109.401 1.86183C109.074 2.10925 108.911 2.43177 108.911 2.8294C108.911 3.15634 109.039 3.4391 109.295 3.67768C109.578 3.91626 110.192 4.19902 111.137 4.52596C112.101 4.8529 112.785 5.25495 113.192 5.7321C113.607 6.20042 113.815 6.77919 113.815 7.46842ZM117.305 10.106C116.775 10.106 116.333 9.94256 115.98 9.61562C115.635 9.28868 115.459 8.83362 115.45 8.25043V4.61874H114.31V3.50537H115.45V1.51722H116.669V3.50537H118.26V4.61874H116.669V7.8528C116.669 8.28577 116.753 8.58179 116.921 8.74084C117.089 8.89105 117.279 8.96616 117.491 8.96616C117.588 8.96616 117.681 8.95733 117.769 8.93965C117.866 8.91314 117.955 8.88222 118.034 8.84687L118.419 9.93373C118.101 10.0486 117.73 10.106 117.305 10.106ZM125.119 10H123.953V9.0987H123.9C123.714 9.41681 123.427 9.6819 123.038 9.89397C122.658 10.106 122.26 10.2121 121.845 10.2121C121.05 10.2121 120.436 9.98675 120.003 9.5361C119.579 9.07661 119.367 8.42715 119.367 7.58771V3.50537H120.586V7.50818C120.612 8.56853 121.147 9.0987 122.19 9.0987C122.676 9.0987 123.082 8.90431 123.409 8.51551C123.736 8.11788 123.9 7.64515 123.9 7.0973V3.50537H125.119V10ZM129.455 9.0987C130.055 9.0987 130.546 8.88222 130.926 8.44924C131.323 8.01627 131.522 7.45075 131.522 6.75269C131.522 6.0723 131.323 5.5112 130.926 5.06938C130.537 4.62757 130.047 4.40667 129.455 4.40667C128.871 4.40667 128.381 4.62757 127.983 5.06938C127.586 5.5112 127.387 6.0723 127.387 6.75269C127.387 7.44191 127.586 8.00301 127.983 8.43599C128.381 8.8778 128.871 9.0987 129.455 9.0987ZM129.256 10.2121C128.407 10.2121 127.678 9.87629 127.069 9.20474C126.468 8.52435 126.167 7.707 126.167 6.75269C126.167 5.79837 126.468 4.98102 127.069 4.30063C127.678 3.62908 128.407 3.2933 129.256 3.2933C129.733 3.2933 130.166 3.39492 130.555 3.59815C130.952 3.80139 131.257 4.07089 131.469 4.40667H131.522L131.469 3.50537V0.509891H132.689V10H131.522V9.0987H131.469C131.257 9.43448 130.952 9.70399 130.555 9.90722C130.166 10.1105 129.733 10.2121 129.256 10.2121ZM137.027 10.2121C136.072 10.2121 135.286 9.88513 134.667 9.23125C134.049 8.57737 133.74 7.75118 133.74 6.75269C133.74 5.76303 134.04 4.94126 134.641 4.28738C135.242 3.62466 136.011 3.2933 136.947 3.2933C137.91 3.2933 138.675 3.60699 139.24 4.23436C139.815 4.8529 140.102 5.72327 140.102 6.84547L140.088 6.97801H134.986C135.003 7.61422 135.215 8.12672 135.622 8.51551C136.028 8.90431 136.514 9.0987 137.08 9.0987C137.857 9.0987 138.467 8.70991 138.909 7.93232L139.996 8.4625C139.704 9.01034 139.298 9.4389 138.776 9.74817C138.264 10.0574 137.681 10.2121 137.027 10.2121ZM135.078 5.97068H138.803C138.767 5.52003 138.582 5.14891 138.246 4.85732C137.919 4.55688 137.477 4.40667 136.921 4.40667C136.461 4.40667 136.064 4.54805 135.728 4.83081C135.401 5.11357 135.184 5.49352 135.078 5.97068ZM141.217 3.50537H142.383V4.40667H142.436C142.622 4.08856 142.905 3.82348 143.284 3.61141C143.673 3.39934 144.075 3.2933 144.491 3.2933C145.286 3.2933 145.896 3.52304 146.32 3.98253C146.753 4.43318 146.969 5.07822 146.969 5.91766V10H145.75V5.99719C145.723 4.93684 145.189 4.40667 144.146 4.40667C143.66 4.40667 143.254 4.60548 142.927 5.00311C142.6 5.39191 142.436 5.86023 142.436 6.40807V10H141.217V3.50537ZM150.635 10.106C150.105 10.106 149.663 9.94256 149.31 9.61562C148.965 9.28868 148.788 8.83362 148.78 8.25043V4.61874H147.64V3.50537H148.78V1.51722H149.999V3.50537H151.59V4.61874H149.999V7.8528C149.999 8.28577 150.083 8.58179 150.251 8.74084C150.419 8.89105 150.609 8.96616 150.821 8.96616C150.918 8.96616 151.011 8.95733 151.099 8.93965C151.196 8.91314 151.285 8.88222 151.364 8.84687L151.749 9.93373C151.431 10.0486 151.059 10.106 150.635 10.106ZM160.082 10.2121C158.677 10.2121 157.502 9.73933 156.556 8.79385C155.619 7.84838 155.151 6.66874 155.151 5.25495C155.151 3.84115 155.619 2.66593 156.556 1.72929C157.493 0.774977 158.668 0.297821 160.082 0.297821C161.513 0.297821 162.675 0.81474 163.568 1.84858L162.693 2.69686C162.013 1.87509 161.142 1.4642 160.082 1.4642C159.03 1.4642 158.151 1.81765 157.444 2.52455C156.746 3.22261 156.397 4.13274 156.397 5.25495C156.397 6.37715 156.746 7.28728 157.444 7.98534C158.151 8.69224 159.03 9.04569 160.082 9.04569C161.186 9.04569 162.145 8.58179 162.958 7.65398L163.846 8.51551C163.395 9.05452 162.843 9.47424 162.189 9.77468C161.535 10.0663 160.833 10.2121 160.082 10.2121ZM166.149 0.509891V10H164.93V0.509891H166.149ZM173.334 10H172.168V9.0987H172.115C171.929 9.41681 171.642 9.6819 171.253 9.89397C170.873 10.106 170.476 10.2121 170.06 10.2121C169.265 10.2121 168.651 9.98675 168.218 9.5361C167.794 9.07661 167.582 8.42715 167.582 7.58771V3.50537H168.801V7.50818C168.828 8.56853 169.362 9.0987 170.405 9.0987C170.891 9.0987 171.298 8.90431 171.625 8.51551C171.951 8.11788 172.115 7.64515 172.115 7.0973V3.50537H173.334V10ZM178.252 10.2121C177.774 10.2121 177.337 10.1105 176.939 9.90722C176.551 9.70399 176.25 9.43448 176.038 9.0987H175.985V10H174.819V0.509891H176.038V3.50537L175.985 4.40667H176.038C176.25 4.07089 176.551 3.80139 176.939 3.59815C177.337 3.39492 177.774 3.2933 178.252 3.2933C179.109 3.2933 179.833 3.62908 180.425 4.30063C181.035 4.98102 181.34 5.79837 181.34 6.75269C181.34 7.71583 181.035 8.53319 180.425 9.20474C179.833 9.87629 179.109 10.2121 178.252 10.2121ZM178.053 9.0987C178.636 9.0987 179.126 8.8778 179.524 8.43599C179.922 8.00301 180.12 7.44191 180.12 6.75269C180.12 6.0723 179.922 5.5112 179.524 5.06938C179.126 4.62757 178.636 4.40667 178.053 4.40667C177.461 4.40667 176.966 4.62757 176.568 5.06938C176.179 5.5112 175.985 6.0723 175.985 6.75269C175.985 7.44191 176.179 8.00743 176.568 8.44924C176.966 8.88222 177.461 9.0987 178.053 9.0987ZM187.361 8.19741C187.361 8.76293 187.114 9.24008 186.619 9.62888C186.124 10.0177 185.501 10.2121 184.75 10.2121C184.096 10.2121 183.522 10.0442 183.027 9.7084C182.532 9.36379 182.179 8.91314 181.966 8.35646L183.053 7.89256C183.212 8.28135 183.442 8.5862 183.743 8.80711C184.052 9.01918 184.388 9.12521 184.75 9.12521C185.139 9.12521 185.461 9.04127 185.717 8.87338C185.983 8.70549 186.115 8.50668 186.115 8.27694C186.115 7.86163 185.797 7.55678 185.161 7.36239L184.047 7.08404C182.784 6.76594 182.152 6.15624 182.152 5.25495C182.152 4.66292 182.391 4.19018 182.868 3.83673C183.354 3.47445 183.972 3.2933 184.723 3.2933C185.298 3.2933 185.815 3.43026 186.274 3.70419C186.742 3.97811 187.069 4.34481 187.255 4.8043L186.168 5.25495C186.044 4.98102 185.841 4.76895 185.558 4.61874C185.284 4.45968 184.975 4.38016 184.631 4.38016C184.312 4.38016 184.025 4.45968 183.769 4.61874C183.522 4.77779 183.398 4.97219 183.398 5.20193C183.398 5.57305 183.747 5.83814 184.445 5.99719L185.426 6.24902C186.716 6.56713 187.361 7.21659 187.361 8.19741ZM15.3248 25H14.4007L11.9749 18.1076H12.9567L14.8435 23.7005H14.882L16.8458 18.1076H17.8276L15.3248 25ZM20.119 25.154C19.4259 25.154 18.8547 24.9166 18.4055 24.4417C17.9563 23.9668 17.7317 23.3667 17.7317 22.6416C17.7317 21.9228 17.9499 21.326 18.3862 20.8511C18.8226 20.3698 19.381 20.1291 20.0612 20.1291C20.7607 20.1291 21.3158 20.3569 21.7266 20.8126C22.1437 21.2618 22.3523 21.8939 22.3523 22.709L22.3426 22.8052H18.6365C18.6494 23.2673 18.8034 23.6395 19.0986 23.9219C19.3938 24.2042 19.7468 24.3454 20.1575 24.3454C20.7222 24.3454 21.165 24.063 21.4859 23.4983L22.2752 23.8834C22.0635 24.2812 21.7683 24.5925 21.3896 24.8171C21.0174 25.0417 20.5939 25.154 20.119 25.154ZM18.7039 22.0736H21.4089C21.3832 21.7463 21.2484 21.4768 21.0046 21.265C20.7671 21.0468 20.4463 20.9377 20.042 20.9377C19.7082 20.9377 19.4195 21.0404 19.1756 21.2458C18.9381 21.4511 18.7809 21.7271 18.7039 22.0736ZM24.0478 18.1076V25H23.1622V18.1076H24.0478ZM26.0125 18.1076V25H25.1269V18.1076H26.0125ZM26.7751 22.6416C26.7751 21.9164 27.0029 21.3164 27.4586 20.8415C27.9206 20.3666 28.5014 20.1291 29.2009 20.1291C29.9004 20.1291 30.478 20.3666 30.9336 20.8415C31.3957 21.3164 31.6267 21.9164 31.6267 22.6416C31.6267 23.3732 31.3957 23.9732 30.9336 24.4417C30.478 24.9166 29.9004 25.154 29.2009 25.154C28.5014 25.154 27.9206 24.9166 27.4586 24.4417C27.0029 23.9668 26.7751 23.3667 26.7751 22.6416ZM27.6607 22.6416C27.6607 23.1486 27.8083 23.5593 28.1035 23.8737C28.3987 24.1882 28.7645 24.3454 29.2009 24.3454C29.6373 24.3454 30.0031 24.1882 30.2983 23.8737C30.5935 23.5593 30.7411 23.1486 30.7411 22.6416C30.7411 22.141 30.5935 21.7335 30.2983 21.419C29.9967 21.0982 29.6309 20.9377 29.2009 20.9377C28.7709 20.9377 28.4051 21.0982 28.1035 21.419C27.8083 21.7335 27.6607 22.141 27.6607 22.6416ZM33.2228 25H32.3372V20.2831H33.1843V21.0532H33.2228C33.3127 20.803 33.4956 20.5912 33.7715 20.4179C34.0539 20.2382 34.3298 20.1484 34.5994 20.1484C34.8561 20.1484 35.0743 20.1869 35.254 20.2639L34.9844 21.1206C34.8753 21.0757 34.7021 21.0532 34.4646 21.0532C34.1309 21.0532 33.8389 21.188 33.5886 21.4575C33.3447 21.7271 33.2228 22.0415 33.2228 22.4009V25ZM37.6606 25.154C36.9675 25.154 36.3963 24.9166 35.9471 24.4417C35.4979 23.9668 35.2733 23.3667 35.2733 22.6416C35.2733 21.9228 35.4915 21.326 35.9278 20.8511C36.3642 20.3698 36.9226 20.1291 37.6028 20.1291C38.3023 20.1291 38.8574 20.3569 39.2682 20.8126C39.6853 21.2618 39.8939 21.8939 39.8939 22.709L39.8842 22.8052H36.1781C36.191 23.2673 36.345 23.6395 36.6402 23.9219C36.9354 24.2042 37.2884 24.3454 37.6991 24.3454C38.2638 24.3454 38.7066 24.063 39.0275 23.4983L39.8169 23.8834C39.6051 24.2812 39.3099 24.5925 38.9312 24.8171C38.559 25.0417 38.1355 25.154 37.6606 25.154ZM36.2455 22.0736H38.9505C38.9248 21.7463 38.7901 21.4768 38.5462 21.265C38.3087 21.0468 37.9879 20.9377 37.5836 20.9377C37.2499 20.9377 36.9611 21.0404 36.7172 21.2458C36.4798 21.4511 36.3225 21.7271 36.2455 22.0736ZM43.8585 25H42.9729V18.1076H43.8585V25ZM45.0939 20.2831H45.941V20.9377H45.9795C46.1142 20.7067 46.3196 20.5142 46.5956 20.3601C46.8779 20.2061 47.1699 20.1291 47.4715 20.1291C48.0491 20.1291 48.4919 20.296 48.8 20.6297C49.1144 20.957 49.2717 21.4255 49.2717 22.0351V25H48.386V22.0929C48.3668 21.3228 47.9785 20.9377 47.2213 20.9377C46.8683 20.9377 46.5731 21.0821 46.3356 21.3709C46.0982 21.6533 45.9795 21.9934 45.9795 22.3913V25H45.0939V20.2831ZM53.8741 23.6908C53.8741 24.1015 53.6944 24.4481 53.335 24.7305C52.9756 25.0128 52.5232 25.154 51.9777 25.154C51.5028 25.154 51.0857 25.0321 50.7263 24.7882C50.3669 24.5379 50.1102 24.2106 49.9562 23.8063L50.7455 23.4694C50.861 23.7518 51.0279 23.9732 51.2461 24.1336C51.4707 24.2877 51.7146 24.3647 51.9777 24.3647C52.2601 24.3647 52.4943 24.3037 52.6804 24.1818C52.8729 24.0598 52.9692 23.9154 52.9692 23.7486C52.9692 23.447 52.7382 23.2256 52.2761 23.0844L51.4675 22.8822C50.5498 22.6512 50.0909 22.2084 50.0909 21.5538C50.0909 21.1238 50.2642 20.7805 50.6108 20.5238C50.9637 20.2607 51.413 20.1291 51.9584 20.1291C52.3756 20.1291 52.751 20.2286 53.0847 20.4275C53.4248 20.6265 53.6623 20.8928 53.7971 21.2265L53.0077 21.5538C52.9179 21.3549 52.7703 21.2008 52.5649 21.0917C52.3659 20.9762 52.1413 20.9185 51.8911 20.9185C51.66 20.9185 51.4515 20.9762 51.2653 21.0917C51.0857 21.2073 50.9958 21.3484 50.9958 21.5153C50.9958 21.7848 51.2493 21.9774 51.7563 22.0929L52.4686 22.2758C53.4056 22.5068 53.8741 22.9785 53.8741 23.6908ZM56.4654 25.077C56.0804 25.077 55.7595 24.9583 55.5028 24.7208C55.2525 24.4834 55.1241 24.1529 55.1177 23.7293V21.0917H54.2899V20.2831H55.1177V18.8392H56.0033V20.2831H57.1585V21.0917H56.0033V23.4405C56.0033 23.755 56.0643 23.97 56.1862 24.0855C56.3082 24.1946 56.4462 24.2492 56.6002 24.2492C56.6708 24.2492 56.7381 24.2427 56.8023 24.2299C56.8729 24.2106 56.9371 24.1882 56.9948 24.1625L57.274 24.9519C57.043 25.0353 56.7734 25.077 56.4654 25.077ZM59.1935 18.6563C59.1935 18.8296 59.1325 18.9772 59.0106 19.0991C58.8886 19.221 58.741 19.282 58.5678 19.282C58.3945 19.282 58.2469 19.221 58.125 19.0991C58.003 18.9772 57.9421 18.8296 57.9421 18.6563C57.9421 18.483 58.003 18.3354 58.125 18.2135C58.2469 18.0916 58.3945 18.0306 58.5678 18.0306C58.741 18.0306 58.8886 18.0916 59.0106 18.2135C59.1325 18.3354 59.1935 18.483 59.1935 18.6563ZM59.0106 20.2831V25H58.125V20.2831H59.0106ZM61.9836 25.077C61.5986 25.077 61.2777 24.9583 61.021 24.7208C60.7707 24.4834 60.6424 24.1529 60.636 23.7293V21.0917H59.8081V20.2831H60.636V18.8392H61.5216V20.2831H62.6767V21.0917H61.5216V23.4405C61.5216 23.755 61.5825 23.97 61.7045 24.0855C61.8264 24.1946 61.9644 24.2492 62.1184 24.2492C62.189 24.2492 62.2564 24.2427 62.3205 24.2299C62.3911 24.2106 62.4553 24.1882 62.5131 24.1625L62.7922 24.9519C62.5612 25.0353 62.2917 25.077 61.9836 25.077ZM67.6584 25H66.8113V24.3454H66.7728C66.638 24.5764 66.4294 24.769 66.1471 24.923C65.8711 25.077 65.5823 25.154 65.2807 25.154C64.7031 25.154 64.2571 24.9904 63.9427 24.6631C63.6346 24.3294 63.4806 23.8577 63.4806 23.248V20.2831H64.3662V23.1903C64.3855 23.9604 64.7737 24.3454 65.531 24.3454C65.884 24.3454 66.1792 24.2042 66.4166 23.9219C66.6541 23.6331 66.7728 23.2897 66.7728 22.8919V20.2831H67.6584V25ZM70.651 25.077C70.2659 25.077 69.945 24.9583 69.6883 24.7208C69.4381 24.4834 69.3097 24.1529 69.3033 23.7293V21.0917H68.4754V20.2831H69.3033V18.8392H70.1889V20.2831H71.3441V21.0917H70.1889V23.4405C70.1889 23.755 70.2499 23.97 70.3718 24.0855C70.4937 24.1946 70.6317 24.2492 70.7857 24.2492C70.8563 24.2492 70.9237 24.2427 70.9879 24.2299C71.0585 24.2106 71.1227 24.1882 71.1804 24.1625L71.4596 24.9519C71.2285 25.0353 70.959 25.077 70.651 25.077ZM74.2573 25.154C73.5642 25.154 72.993 24.9166 72.5438 24.4417C72.0946 23.9668 71.87 23.3667 71.87 22.6416C71.87 21.9228 72.0882 21.326 72.5246 20.8511C72.961 20.3698 73.5193 20.1291 74.1995 20.1291C74.899 20.1291 75.4542 20.3569 75.8649 20.8126C76.282 21.2618 76.4906 21.8939 76.4906 22.709L76.481 22.8052H72.7749C72.7877 23.2673 72.9417 23.6395 73.2369 23.9219C73.5321 24.2042 73.8851 24.3454 74.2958 24.3454C74.8605 24.3454 75.3033 24.063 75.6242 23.4983L76.4136 23.8834C76.2018 24.2812 75.9066 24.5925 75.528 24.8171C75.1557 25.0417 74.7322 25.154 74.2573 25.154ZM72.8422 22.0736H75.5472C75.5215 21.7463 75.3868 21.4768 75.1429 21.265C74.9055 21.0468 74.5846 20.9377 74.1803 20.9377C73.8466 20.9377 73.5578 21.0404 73.3139 21.2458C73.0765 21.4511 72.9192 21.7271 72.8422 22.0736ZM79.1461 22.6416C79.1461 21.9164 79.3739 21.3164 79.8296 20.8415C80.2916 20.3666 80.8724 20.1291 81.5719 20.1291C82.2714 20.1291 82.849 20.3666 83.3047 20.8415C83.7667 21.3164 83.9977 21.9164 83.9977 22.6416C83.9977 23.3732 83.7667 23.9732 83.3047 24.4417C82.849 24.9166 82.2714 25.154 81.5719 25.154C80.8724 25.154 80.2916 24.9166 79.8296 24.4417C79.3739 23.9668 79.1461 23.3667 79.1461 22.6416ZM80.0317 22.6416C80.0317 23.1486 80.1793 23.5593 80.4745 23.8737C80.7697 24.1882 81.1355 24.3454 81.5719 24.3454C82.0083 24.3454 82.3741 24.1882 82.6693 23.8737C82.9645 23.5593 83.1121 23.1486 83.1121 22.6416C83.1121 22.141 82.9645 21.7335 82.6693 21.419C82.3677 21.0982 82.0019 20.9377 81.5719 20.9377C81.142 20.9377 80.7762 21.0982 80.4745 21.419C80.1793 21.7335 80.0317 22.141 80.0317 22.6416ZM86.8367 18.0306C87.1576 18.0306 87.4207 18.0851 87.6261 18.1942L87.3854 18.974C87.2314 18.897 87.0581 18.8584 86.8656 18.8584C86.6474 18.8584 86.4677 18.9355 86.3265 19.0895C86.1918 19.2371 86.1244 19.436 86.1244 19.6863V20.2831H87.3565V21.0917H86.1244V25H85.2388V21.0917H84.3532V20.2831H85.2388V19.5997C85.2388 19.1312 85.3864 18.7526 85.6816 18.4638C85.9832 18.175 86.3682 18.0306 86.8367 18.0306ZM92.4378 18.9547V25H91.5522V18.9547H89.6269V18.1076H94.363V18.9547H92.4378ZM96.4804 25.154C95.7873 25.154 95.2162 24.9166 94.767 24.4417C94.3177 23.9668 94.0931 23.3667 94.0931 22.6416C94.0931 21.9228 94.3113 21.326 94.7477 20.8511C95.1841 20.3698 95.7424 20.1291 96.4227 20.1291C97.1222 20.1291 97.6773 20.3569 98.088 20.8126C98.5051 21.2618 98.7137 21.8939 98.7137 22.709L98.7041 22.8052H94.998C95.0108 23.2673 95.1648 23.6395 95.46 23.9219C95.7552 24.2042 96.1082 24.3454 96.5189 24.3454C97.0837 24.3454 97.5265 24.063 97.8474 23.4983L98.6367 23.8834C98.4249 24.2812 98.1297 24.5925 97.7511 24.8171C97.3789 25.0417 96.9553 25.154 96.4804 25.154ZM95.0654 22.0736H97.7703C97.7447 21.7463 97.6099 21.4768 97.366 21.265C97.1286 21.0468 96.8077 20.9377 96.4034 20.9377C96.0697 20.9377 95.7809 21.0404 95.5371 21.2458C95.2996 21.4511 95.1424 21.7271 95.0654 22.0736ZM101.727 25.154C101.027 25.154 100.447 24.9166 99.9846 24.4417C99.529 23.9539 99.3011 23.3539 99.3011 22.6416C99.3011 21.9164 99.529 21.3164 99.9846 20.8415C100.447 20.3666 101.027 20.1291 101.727 20.1291C102.208 20.1291 102.629 20.251 102.988 20.4949C103.347 20.7324 103.617 21.0629 103.797 21.4864L102.988 21.8233C102.738 21.2329 102.298 20.9377 101.669 20.9377C101.265 20.9377 100.915 21.1014 100.62 21.4287C100.331 21.756 100.187 22.1603 100.187 22.6416C100.187 23.1229 100.331 23.5272 100.62 23.8545C100.915 24.1818 101.265 24.3454 101.669 24.3454C102.317 24.3454 102.773 24.0502 103.036 23.4598L103.825 23.7967C103.652 24.2203 103.379 24.554 103.007 24.7978C102.641 25.0353 102.215 25.154 101.727 25.154ZM104.6 18.1076H105.486V20.2831L105.447 20.9377H105.486C105.62 20.7067 105.826 20.5142 106.102 20.3601C106.384 20.2061 106.676 20.1291 106.978 20.1291C107.555 20.1291 107.998 20.296 108.306 20.6297C108.621 20.957 108.778 21.4255 108.778 22.0351V25H107.892V22.2084C107.892 21.3613 107.517 20.9377 106.766 20.9377C106.406 20.9377 106.102 21.0885 105.851 21.3902C105.608 21.6854 105.486 22.0319 105.486 22.4298V25H104.6V18.1076ZM109.817 20.2831H110.664V20.9377H110.703C110.838 20.7067 111.043 20.5142 111.319 20.3601C111.601 20.2061 111.893 20.1291 112.195 20.1291C112.773 20.1291 113.215 20.296 113.523 20.6297C113.838 20.957 113.995 21.4255 113.995 22.0351V25H113.109V22.0929C113.09 21.3228 112.702 20.9377 111.945 20.9377C111.592 20.9377 111.296 21.0821 111.059 21.3709C110.822 21.6533 110.703 21.9934 110.703 22.3913V25H109.817V20.2831ZM114.765 22.6416C114.765 21.9164 114.993 21.3164 115.449 20.8415C115.911 20.3666 116.491 20.1291 117.191 20.1291C117.89 20.1291 118.468 20.3666 118.924 20.8415C119.386 21.3164 119.617 21.9164 119.617 22.6416C119.617 23.3732 119.386 23.9732 118.924 24.4417C118.468 24.9166 117.89 25.154 117.191 25.154C116.491 25.154 115.911 24.9166 115.449 24.4417C114.993 23.9668 114.765 23.3667 114.765 22.6416ZM115.651 22.6416C115.651 23.1486 115.798 23.5593 116.094 23.8737C116.389 24.1882 116.755 24.3454 117.191 24.3454C117.627 24.3454 117.993 24.1882 118.288 23.8737C118.584 23.5593 118.731 23.1486 118.731 22.6416C118.731 22.141 118.584 21.7335 118.288 21.419C117.987 21.0982 117.621 20.9377 117.191 20.9377C116.761 20.9377 116.395 21.0982 116.094 21.419C115.798 21.7335 115.651 22.141 115.651 22.6416ZM121.26 18.1076V25H120.374V18.1076H121.26ZM122.022 22.6416C122.022 21.9164 122.25 21.3164 122.706 20.8415C123.168 20.3666 123.749 20.1291 124.448 20.1291C125.148 20.1291 125.725 20.3666 126.181 20.8415C126.643 21.3164 126.874 21.9164 126.874 22.6416C126.874 23.3732 126.643 23.9732 126.181 24.4417C125.725 24.9166 125.148 25.154 124.448 25.154C123.749 25.154 123.168 24.9166 122.706 24.4417C122.25 23.9668 122.022 23.3667 122.022 22.6416ZM122.908 22.6416C122.908 23.1486 123.056 23.5593 123.351 23.8737C123.646 24.1882 124.012 24.3454 124.448 24.3454C124.885 24.3454 125.25 24.1882 125.546 23.8737C125.841 23.5593 125.988 23.1486 125.988 22.6416C125.988 22.141 125.841 21.7335 125.546 21.419C125.244 21.0982 124.878 20.9377 124.448 20.9377C124.018 20.9377 123.652 21.0982 123.351 21.419C123.056 21.7335 122.908 22.141 122.908 22.6416ZM129.796 24.3454C130.233 24.3454 130.589 24.1882 130.865 23.8737C131.154 23.5593 131.298 23.1486 131.298 22.6416C131.298 22.1474 131.154 21.7399 130.865 21.419C130.582 21.0982 130.226 20.9377 129.796 20.9377C129.373 20.9377 129.017 21.0982 128.728 21.419C128.439 21.7399 128.295 22.1474 128.295 22.6416C128.295 23.1421 128.439 23.5496 128.728 23.8641C129.017 24.185 129.373 24.3454 129.796 24.3454ZM129.767 27.2333C129.504 27.2333 129.257 27.198 129.026 27.1274C128.795 27.0632 128.583 26.9702 128.391 26.8482C128.205 26.7263 128.044 26.5819 127.91 26.4151C127.775 26.2482 127.672 26.0621 127.602 25.8567L128.439 25.5102C128.535 25.7861 128.702 26.0075 128.94 26.1744C129.177 26.3413 129.453 26.4247 129.767 26.4247C130.249 26.4247 130.624 26.2803 130.894 25.9915C131.163 25.7027 131.298 25.3048 131.298 24.7978V24.3454H131.26C131.093 24.5957 130.865 24.7946 130.576 24.9422C130.294 25.0834 129.986 25.154 129.652 25.154C129.036 25.154 128.506 24.9134 128.064 24.4321C127.627 23.9379 127.409 23.3411 127.409 22.6416C127.409 21.9421 127.627 21.3484 128.064 20.8607C128.506 20.373 129.036 20.1291 129.652 20.1291C129.986 20.1291 130.294 20.2029 130.576 20.3505C130.865 20.4917 131.093 20.6874 131.26 20.9377H131.298V20.2831H132.145V24.7978C132.145 25.5551 131.93 26.1487 131.5 26.5787C131.064 27.0151 130.486 27.2333 129.767 27.2333ZM137.441 20.2831L134.486 27.0793H133.571L134.669 24.7016L132.724 20.2831H133.687L135.092 23.6716H135.112L136.479 20.2831H137.441ZM137.641 26.0781L137.227 25.8086L137.747 25C137.612 24.9743 137.496 24.9069 137.4 24.7978C137.31 24.6888 137.265 24.5572 137.265 24.4032C137.265 24.2171 137.33 24.063 137.458 23.9411C137.586 23.8128 137.74 23.7486 137.92 23.7486C138.106 23.7486 138.26 23.8128 138.382 23.9411C138.51 24.063 138.575 24.2171 138.575 24.4032C138.575 24.5764 138.51 24.7658 138.382 24.9711L137.641 26.0781ZM144.905 25.154C143.885 25.154 143.031 24.8107 142.344 24.124C141.664 23.4373 141.324 22.5806 141.324 21.5538C141.324 20.527 141.664 19.6735 142.344 18.9932C143.025 18.3001 143.878 17.9536 144.905 17.9536C145.945 17.9536 146.789 18.329 147.437 19.0799L146.801 19.6959C146.307 19.0991 145.675 18.8007 144.905 18.8007C144.141 18.8007 143.503 19.0574 142.989 19.5708C142.482 20.0778 142.229 20.7388 142.229 21.5538C142.229 22.3688 142.482 23.0298 142.989 23.5368C143.503 24.0502 144.141 24.3069 144.905 24.3069C145.707 24.3069 146.403 23.97 146.994 23.2962L147.639 23.9219C147.312 24.3133 146.91 24.6182 146.436 24.8364C145.961 25.0481 145.45 25.154 144.905 25.154ZM148.426 18.1076H149.311V20.2831L149.273 20.9377H149.311C149.446 20.7067 149.651 20.5142 149.927 20.3601C150.21 20.2061 150.502 20.1291 150.803 20.1291C151.381 20.1291 151.824 20.296 152.132 20.6297C152.446 20.957 152.604 21.4255 152.604 22.0351V25H151.718V22.2084C151.718 21.3613 151.342 20.9377 150.592 20.9377C150.232 20.9377 149.927 21.0885 149.677 21.3902C149.433 21.6854 149.311 22.0319 149.311 22.4298V25H148.426V18.1076ZM155.761 25.154C155.068 25.154 154.497 24.9166 154.047 24.4417C153.598 23.9668 153.374 23.3667 153.374 22.6416C153.374 21.9228 153.592 21.326 154.028 20.8511C154.465 20.3698 155.023 20.1291 155.703 20.1291C156.403 20.1291 156.958 20.3569 157.368 20.8126C157.786 21.2618 157.994 21.8939 157.994 22.709L157.985 22.8052H154.278C154.291 23.2673 154.445 23.6395 154.741 23.9219C155.036 24.2042 155.389 24.3454 155.799 24.3454C156.364 24.3454 156.807 24.063 157.128 23.4983L157.917 23.8834C157.705 24.2812 157.41 24.5925 157.032 24.8171C156.659 25.0417 156.236 25.154 155.761 25.154ZM154.346 22.0736H157.051C157.025 21.7463 156.89 21.4768 156.647 21.265C156.409 21.0468 156.088 20.9377 155.684 20.9377C155.35 20.9377 155.061 21.0404 154.818 21.2458C154.58 21.4511 154.423 21.7271 154.346 22.0736ZM158.804 20.2831H159.651V20.9377H159.69C159.824 20.7067 160.03 20.5142 160.306 20.3601C160.588 20.2061 160.88 20.1291 161.182 20.1291C161.759 20.1291 162.202 20.296 162.51 20.6297C162.825 20.957 162.982 21.4255 162.982 22.0351V25H162.096V22.0929C162.077 21.3228 161.689 20.9377 160.931 20.9377C160.578 20.9377 160.283 21.0821 160.046 21.3709C159.808 21.6533 159.69 21.9934 159.69 22.3913V25H158.804V20.2831ZM164.022 20.2831H164.869V20.9377H164.907C165.042 20.7067 165.247 20.5142 165.523 20.3601C165.806 20.2061 166.098 20.1291 166.399 20.1291C166.977 20.1291 167.42 20.296 167.728 20.6297C168.042 20.957 168.199 21.4255 168.199 22.0351V25H167.314V22.0929C167.294 21.3228 166.906 20.9377 166.149 20.9377C165.796 20.9377 165.501 21.0821 165.263 21.3709C165.026 21.6533 164.907 21.9934 164.907 22.3913V25H164.022V20.2831ZM169.837 23.5561C169.837 23.7871 169.933 23.9796 170.125 24.1336C170.324 24.2877 170.555 24.3647 170.819 24.3647C171.191 24.3647 171.521 24.2267 171.81 23.9507C172.105 23.6748 172.253 23.3507 172.253 22.9785C171.977 22.7603 171.592 22.6512 171.098 22.6512C170.738 22.6512 170.437 22.7378 170.193 22.9111C169.955 23.0844 169.837 23.2994 169.837 23.5561ZM170.982 20.1291C171.637 20.1291 172.153 20.3056 172.532 20.6586C172.911 21.0051 173.1 21.4832 173.1 22.0929V25H172.253V24.3454H172.214C171.849 24.8845 171.361 25.154 170.751 25.154C170.231 25.154 169.795 25 169.442 24.692C169.095 24.3839 168.922 23.9989 168.922 23.5368C168.922 23.0491 169.105 22.6608 169.471 22.372C169.843 22.0832 170.337 21.9389 170.953 21.9389C171.48 21.9389 171.913 22.0351 172.253 22.2276V22.0255C172.253 21.7174 172.131 21.4575 171.887 21.2458C171.643 21.0276 171.358 20.9185 171.03 20.9185C170.536 20.9185 170.145 21.127 169.856 21.5442L169.076 21.0532C169.506 20.4372 170.142 20.1291 170.982 20.1291ZM175.245 18.6563C175.245 18.8296 175.184 18.9772 175.062 19.0991C174.94 19.221 174.792 19.282 174.619 19.282C174.446 19.282 174.298 19.221 174.176 19.0991C174.054 18.9772 173.993 18.8296 173.993 18.6563C173.993 18.483 174.054 18.3354 174.176 18.2135C174.298 18.0916 174.446 18.0306 174.619 18.0306C174.792 18.0306 174.94 18.0916 175.062 18.2135C175.184 18.3354 175.245 18.483 175.245 18.6563ZM175.062 20.2831V25H174.176V20.2831H175.062Z" fill="#787878"/>
</svg>
