<svg width="57" height="57" viewBox="0 0 57 57" fill="none" xmlns="http://www.w3.org/2000/svg">
<g id="ph:cube">
<path id="Vector" d="M49.8037 14.7288L30.21 4.0079C29.6865 3.71863 29.0981 3.56689 28.5 3.56689C27.9019 3.56689 27.3135 3.71863 26.79 4.0079L7.19625 14.7332C6.63669 15.0394 6.16959 15.4902 5.84373 16.0385C5.51787 16.5868 5.3452 17.2126 5.34375 17.8504V39.1453C5.3452 39.7831 5.51787 40.4089 5.84373 40.9572C6.16959 41.5055 6.63669 41.9563 7.19625 42.2625L26.79 52.9878C27.3135 53.2771 27.9019 53.4288 28.5 53.4288C29.0981 53.4288 29.6865 53.2771 30.21 52.9878L49.8037 42.2625C50.3633 41.9563 50.8304 41.5055 51.1563 40.9572C51.4821 40.4089 51.6548 39.7831 51.6562 39.1453V17.8527C51.656 17.2137 51.4839 16.5865 51.158 16.0369C50.832 15.4873 50.3643 15.0355 49.8037 14.7288ZM28.5 7.12509L46.3882 16.922L28.5 26.7188L10.6118 16.922L28.5 7.12509ZM8.90625 20.0391L26.7188 29.787V48.8887L8.90625 39.1475V20.0391ZM30.2812 48.8887V29.7959L48.0938 20.0391V39.1386L30.2812 48.8887Z" fill="#5293FF"/>
</g>
</svg>
