<svg width="43" height="44" viewBox="0 0 43 44" fill="none" xmlns="http://www.w3.org/2000/svg">
<g id="ph:cube">
<path id="Vector" d="M37.5712 11.5417L22.79 3.45402C22.3951 3.2358 21.9512 3.12134 21.5 3.12134C21.0488 3.12134 20.6049 3.2358 20.21 3.45402L5.42875 11.5451C5.00663 11.776 4.65425 12.1161 4.40843 12.5298C4.1626 12.9434 4.03234 13.4155 4.03125 13.8966V29.9612C4.03234 30.4424 4.1626 30.9144 4.40843 31.3281C4.65425 31.7417 5.00663 32.0818 5.42875 32.3127L20.21 40.4038C20.6049 40.622 21.0488 40.7365 21.5 40.7365C21.9512 40.7365 22.3951 40.622 22.79 40.4038L37.5712 32.3127C37.9934 32.0818 38.3457 31.7417 38.5916 31.3281C38.8374 30.9144 38.9677 30.4424 38.9688 29.9612V13.8983C38.9686 13.4163 38.8387 12.9432 38.5929 12.5286C38.347 12.1139 37.9941 11.7731 37.5712 11.5417ZM21.5 5.80559L34.9946 13.1962L21.5 20.5868L8.00539 13.1962L21.5 5.80559ZM6.71875 15.5478L20.1562 22.9014V37.3115L6.71875 29.9629V15.5478ZM22.8438 37.3115V22.9082L36.2812 15.5478V29.9561L22.8438 37.3115Z" fill="#FCCF4B"/>
</g>
</svg>
