<svg width="43" height="43" viewBox="0 0 43 43" fill="none" xmlns="http://www.w3.org/2000/svg">
<g id="ph:cube">
<path id="Vector" d="M37.5712 11.1111L22.79 3.02336C22.3951 2.80514 21.9512 2.69067 21.5 2.69067C21.0488 2.69067 20.6049 2.80514 20.21 3.02336L5.42875 11.1144C5.00663 11.3454 4.65425 11.6854 4.40843 12.0991C4.1626 12.5127 4.03234 12.9848 4.03125 13.466V29.5305C4.03234 30.0117 4.1626 30.4838 4.40843 30.8974C4.65425 31.311 5.00663 31.6511 5.42875 31.8821L20.21 39.9731C20.6049 40.1913 21.0488 40.3058 21.5 40.3058C21.9512 40.3058 22.3951 40.1913 22.79 39.9731L37.5712 31.8821C37.9934 31.6511 38.3457 31.311 38.5916 30.8974C38.8374 30.4838 38.9677 30.0117 38.9688 29.5305V13.4677C38.9686 12.9856 38.8387 12.5125 38.5929 12.0979C38.347 11.6833 37.9941 11.3424 37.5712 11.1111ZM21.5 5.37492L34.9946 12.7655L21.5 20.1562L8.00539 12.7655L21.5 5.37492ZM6.71875 15.1171L20.1562 22.4708V36.8808L6.71875 29.5322V15.1171ZM22.8438 36.8808V22.4775L36.2812 15.1171V29.5255L22.8438 36.8808Z" fill="#44A777"/>
</g>
</svg>
