<svg width="39" height="28" viewBox="0 0 39 28" fill="none" xmlns="http://www.w3.org/2000/svg">
<path d="M33.5951 3.41506C30.2204 0.871482 24.8817 0.440314 24.6532 0.424804C24.2988 0.396886 23.961 0.583003 23.8153 0.890094C23.8021 0.908705 23.6861 1.15996 23.557 1.5508C25.7891 1.90442 28.5313 2.61477 31.0119 4.05716C31.4093 4.28671 31.5318 4.77681 31.2868 5.14904C31.1245 5.3941 30.8496 5.52748 30.5648 5.52748C30.4124 5.52748 30.2568 5.48715 30.1177 5.4065C25.8521 2.92806 20.5267 2.80398 19.5 2.80398C18.4733 2.80398 13.1446 2.92806 8.8823 5.4065C8.48489 5.63915 7.96162 5.52438 7.71654 5.15214C7.46816 4.77681 7.59069 4.28981 7.98811 4.05716C10.4687 2.61787 13.2109 1.90443 15.443 1.55391C15.3139 1.15996 15.1979 0.911808 15.188 0.890094C15.039 0.583003 14.7045 0.390683 14.3468 0.424804C14.1183 0.440314 8.77964 0.871482 5.35853 3.44919C3.57346 4.99705 0 14.0423 0 21.8622C0 22.0018 0.0397418 22.1352 0.112602 22.2562C2.5766 26.3135 9.3029 27.3744 10.8363 27.4209C10.8429 27.4209 10.8528 27.4209 10.8628 27.4209C11.1343 27.4209 11.3894 27.2999 11.5483 27.0952L13.0983 25.0976C8.91542 24.0863 6.7793 22.3679 6.65676 22.2655C6.30571 21.977 6.27259 21.4745 6.5839 21.1457C6.8919 20.8169 7.42841 20.7859 7.77947 21.0744C7.82914 21.1178 11.7636 24.2445 19.5 24.2445C27.2497 24.2445 31.1841 21.1054 31.2238 21.0744C31.5749 20.789 32.1081 20.8169 32.4194 21.1488C32.7274 21.4776 32.6943 21.977 32.3432 22.2655C32.2207 22.3679 30.0846 24.0863 25.9017 25.0976L27.4517 27.0952C27.6106 27.2999 27.8657 27.4209 28.1372 27.4209C28.1472 27.4209 28.1571 27.4209 28.1637 27.4209C29.6971 27.3744 36.4234 26.3135 38.8874 22.2562C38.9603 22.1352 39 22.0018 39 21.8622C39 14.0423 35.4265 4.99705 33.5951 3.41506ZM13.9891 18.6859C12.3498 18.6859 11.0217 17.2652 11.0217 15.5095C11.0217 13.7538 12.3498 12.3331 13.9891 12.3331C15.6285 12.3331 16.9565 13.7538 16.9565 15.5095C16.9565 17.2652 15.6285 18.6859 13.9891 18.6859ZM25.0109 18.6859C23.3715 18.6859 22.0435 17.2652 22.0435 15.5095C22.0435 13.7538 23.3715 12.3331 25.0109 12.3331C26.6502 12.3331 27.9783 13.7538 27.9783 15.5095C27.9783 17.2652 26.6502 18.6859 25.0109 18.6859Z" fill="white"/>
</svg>
