<svg width="33" height="33" viewBox="0 0 33 33" fill="none" xmlns="http://www.w3.org/2000/svg">
<path d="M14.6614 0.534081C7.06168 1.35169 0.948823 7.40201 0.122762 14.7605C-0.868512 22.9366 4.25307 29.9681 11.5224 32.2574V28.4964C11.5224 28.4964 10.8616 28.6599 10.0355 28.6599C7.72253 28.6599 6.73125 26.6976 6.56604 25.553C6.40083 24.8989 6.0704 24.4083 5.57477 23.9177C5.07913 23.7542 4.91392 23.7542 4.91392 23.5907C4.91392 23.2637 5.40955 23.2637 5.57477 23.2637C6.56604 23.2637 7.3921 24.4083 7.72253 24.8989C8.54859 26.2071 9.53986 26.5341 10.0355 26.5341C10.6963 26.5341 11.192 26.3706 11.5224 26.2071C11.6876 25.0624 12.1833 23.9177 13.1745 23.2637C9.37465 22.446 6.56604 20.3203 6.56604 16.7228C6.56604 14.924 7.3921 13.1253 8.54859 11.8171C8.38337 11.4901 8.21816 10.6725 8.21816 9.5278C8.21816 8.87371 8.21816 7.89258 8.7138 6.91145C8.7138 6.91145 11.0268 6.91145 13.3397 9.03723C14.1658 8.71019 15.3223 8.54667 16.4788 8.54667C17.6353 8.54667 18.7917 8.71019 19.783 9.03723C21.9308 6.91145 24.409 6.91145 24.409 6.91145C24.7394 7.89258 24.7394 8.87371 24.7394 9.5278C24.7394 10.836 24.5742 11.4901 24.409 11.8171C25.5654 13.1253 26.3915 14.7605 26.3915 16.7228C26.3915 20.3203 23.5829 22.446 19.783 23.2637C20.7743 24.0813 21.4351 25.553 21.4351 27.0247V32.4209C28.2088 30.2951 33 24.0813 33 16.8863C33 7.07497 24.5742 -0.610574 14.6614 0.534081Z" fill="white"/>
</svg>
